<svg width="20" height="21" viewBox="0 0 20 21" fill="none" xmlns="http://www.w3.org/2000/svg">
<path d="M10.5654 4.91162H9.43802C9.33489 4.91162 9.25052 4.996 9.25052 5.09912V11.5515C9.25052 11.6124 9.27864 11.6687 9.32786 11.7038L13.2021 14.5327C13.2865 14.5937 13.4036 14.5773 13.4646 14.4929L14.1349 13.5788C14.1982 13.4921 14.1794 13.3749 14.0951 13.3163L10.7529 10.8999V5.09912C10.7529 4.996 10.6685 4.91162 10.5654 4.91162ZM15.7169 6.67412L19.3919 7.57178C19.5091 7.5999 19.624 7.51084 19.624 7.39131L19.6427 3.60615C19.6427 3.44912 19.4622 3.36006 19.3404 3.4585L15.6466 6.34365C15.6187 6.36525 15.5974 6.39428 15.5853 6.42742C15.5731 6.46056 15.5706 6.49646 15.5779 6.53098C15.5853 6.5655 15.6022 6.59725 15.6268 6.62257C15.6514 6.64789 15.6826 6.66576 15.7169 6.67412ZM19.6474 13.7312L18.3185 13.2741C18.2722 13.2583 18.2214 13.2611 18.1772 13.2822C18.133 13.3032 18.0987 13.3407 18.0818 13.3866C18.0372 13.5062 17.9904 13.6234 17.9411 13.7405C17.524 14.7273 16.9263 15.6155 16.1622 16.3773C15.4067 17.1352 14.5112 17.7393 13.5255 18.1562C12.5044 18.5879 11.4068 18.8095 10.2982 18.8077C9.17786 18.8077 8.09271 18.5898 7.07083 18.1562C6.08514 17.7393 5.18969 17.1352 4.43411 16.3773C3.6724 15.6155 3.07474 14.7273 2.65521 13.7405C2.22585 12.7189 2.00588 11.6214 2.00833 10.5132C2.00833 9.39287 2.2263 8.30537 2.6599 7.2835C3.07708 6.29678 3.67474 5.4085 4.4388 4.64678C5.19438 3.88885 6.08983 3.28472 7.07552 2.86787C8.09271 2.43428 9.18021 2.21631 10.3005 2.21631C11.4208 2.21631 12.506 2.43428 13.5279 2.86787C14.5136 3.28472 15.409 3.88885 16.1646 4.64678C16.4036 4.88818 16.6286 5.13896 16.8349 5.40381L18.2365 4.30693C16.3919 1.94912 13.5208 0.432717 10.2958 0.435061C4.68021 0.437404 0.170833 4.99834 0.227083 10.6163C0.283333 16.1359 4.77161 20.5913 10.3005 20.5913C14.6482 20.5913 18.3513 17.8351 19.7622 13.9749C19.7974 13.8765 19.7458 13.7663 19.6474 13.7312Z" fill="black"/>
</svg>
