<svg width="40" height="36" viewBox="0 0 40 36" fill="none" xmlns="http://www.w3.org/2000/svg">
<path d="M39.598 8.33L34.848 4.67C34.5252 4.46279 34.1743 4.30315 33.806 4.196C33.4392 4.07729 33.0574 4.01129 32.672 4H19L20.602 14H32.672C33 14 33.41 13.926 33.804 13.804C34.198 13.682 34.578 13.514 34.846 13.332L39.596 9.668C39.866 9.486 40 9.244 40 9C40 8.756 39.866 8.514 39.598 8.33ZM17 0H15C14.7348 0 14.4804 0.105357 14.2929 0.292893C14.1054 0.48043 14 0.734784 14 1V8H7.328C6.996 8 6.588 8.074 6.194 8.198C5.798 8.318 5.42 8.484 5.152 8.67L0.402 12.33C0.132 12.512 0 12.756 0 13C0 13.242 0.132 13.484 0.402 13.67L5.152 17.334C5.42 17.516 5.798 17.684 6.194 17.804C6.588 17.926 6.996 18 7.328 18H14V35C14 35.2652 14.1054 35.5196 14.2929 35.7071C14.4804 35.8946 14.7348 36 15 36H17C17.2652 36 17.5196 35.8946 17.7071 35.7071C17.8946 35.5196 18 35.2652 18 35V1C18 0.734784 17.8946 0.48043 17.7071 0.292893C17.5196 0.105357 17.2652 0 17 0Z" fill="#030F0D"/>
</svg>
