<svg width="26" height="21" viewBox="0 0 26 21" fill="none" xmlns="http://www.w3.org/2000/svg">
<path d="M1 6.51302V5.44636C1 3.95302 1 3.20636 1.29067 2.63569C1.54667 2.13302 1.95333 1.72636 2.456 1.47036C3.02667 1.17969 3.77333 1.17969 5.26667 1.17969H13.6667M1 6.51302H13.6667M1 6.51302V15.5797C1 17.073 1 17.8197 1.29067 18.3904C1.54633 18.8921 1.95426 19.3 2.456 19.5557C3.02533 19.8464 3.772 19.8464 5.26267 19.8464H20.7373C22.228 19.8464 22.9733 19.8464 23.5427 19.5557C24.0453 19.2997 24.4533 18.8917 24.7093 18.3904C25 17.8197 25 17.0757 25 15.585V9.17969M18.3333 4.27569L20.312 6.37702C20.3562 6.42228 20.4094 6.4577 20.4682 6.48097C20.527 6.50424 20.5901 6.51484 20.6532 6.51207C20.7164 6.50931 20.7783 6.49323 20.8348 6.4649C20.8914 6.43658 20.9413 6.39664 20.9813 6.34769L25 1.17969M5 14.513H10.3333" stroke="#082C25" stroke-width="1.5" stroke-linecap="round" stroke-linejoin="round"/>
</svg>
