<svg width="22" height="23" viewBox="0 0 22 23" fill="none" xmlns="http://www.w3.org/2000/svg">
<g clip-path="url(#clip0_1932_329)">
<path d="M7.99956 18.6382C7.44606 18.6382 6.96756 18.9419 6.70731 19.3882H2.48481L4.47081 15.5692C4.64106 15.6105 4.81656 15.6382 4.99956 15.6382C6.24006 15.6382 7.24956 14.6287 7.24956 13.3882C7.24956 12.1477 6.24006 11.1382 4.99956 11.1382C3.75906 11.1382 2.74956 12.1477 2.74956 13.3882C2.74956 13.8975 2.92581 14.3617 3.21156 14.739L0.584305 19.7932C0.525105 19.9075 0.496306 20.0351 0.500677 20.1637C0.505048 20.2923 0.542443 20.4176 0.609265 20.5276C0.676087 20.6376 0.770087 20.7285 0.882223 20.7917C0.99436 20.8548 1.12086 20.8881 1.24956 20.8882H6.70731C6.96756 21.3345 7.44606 21.6382 7.99956 21.6382C8.39738 21.6382 8.77891 21.4802 9.06022 21.1989C9.34152 20.9176 9.49956 20.536 9.49956 20.1382C9.49956 19.7404 9.34152 19.3588 9.06022 19.0775C8.77891 18.7962 8.39738 18.6382 7.99956 18.6382ZM4.99956 12.6382C5.19267 12.6468 5.375 12.7296 5.5086 12.8693C5.6422 13.009 5.71676 13.1949 5.71676 13.3882C5.71676 13.5815 5.6422 13.7674 5.5086 13.9071C5.375 14.0468 5.19267 14.1296 4.99956 14.1382C4.80064 14.1382 4.60988 14.0592 4.46923 13.9185C4.32857 13.7779 4.24956 13.5871 4.24956 13.3882C4.24956 13.1893 4.32857 12.9985 4.46923 12.8579C4.60988 12.7172 4.80064 12.6382 4.99956 12.6382ZM21.4148 19.7924L18.3848 13.9642C18.5084 13.667 18.5331 13.3379 18.4553 13.0256C18.3775 12.7132 18.2013 12.4342 17.9527 12.2297C17.7041 12.0253 17.3963 11.9062 17.0748 11.8901C16.7534 11.874 16.4352 11.9617 16.1674 12.1403C15.8997 12.3189 15.6964 12.579 15.5878 12.882C15.4792 13.185 15.4709 13.5149 15.5642 13.8229C15.6575 14.131 15.8474 14.4009 16.1059 14.5927C16.3643 14.7846 16.6777 14.8881 16.9996 14.8882C17.0558 14.8882 17.1098 14.8777 17.1646 14.8709L19.5143 19.3882H16.1116C15.9575 18.9507 15.6717 18.5717 15.2936 18.3031C14.9154 18.0345 14.4634 17.8896 13.9996 17.8882C12.7591 17.8882 11.7496 18.8977 11.7496 20.1382C11.7496 21.3787 12.7591 22.3882 13.9996 22.3882C14.4634 22.3868 14.9154 22.2419 15.2936 21.9733C15.6717 21.7047 15.9575 21.3257 16.1116 20.8882H20.7496C20.8785 20.8882 21.0052 20.855 21.1175 20.7918C21.2299 20.7285 21.324 20.6374 21.3909 20.5272C21.4577 20.417 21.4951 20.2914 21.4992 20.1626C21.5034 20.0338 21.4744 19.9068 21.4148 19.7924ZM13.9996 20.8882C13.8064 20.8796 13.6241 20.7968 13.4905 20.6571C13.3569 20.5174 13.2824 20.3315 13.2824 20.1382C13.2824 19.9449 13.3569 19.759 13.4905 19.6193C13.6241 19.4796 13.8064 19.3968 13.9996 19.3882C14.1927 19.3968 14.375 19.4796 14.5086 19.6193C14.6422 19.759 14.7168 19.9449 14.7168 20.1382C14.7168 20.3315 14.6422 20.5174 14.5086 20.6571C14.375 20.7968 14.1927 20.8796 13.9996 20.8882ZM14.7496 5.88818C14.5712 5.89 14.3937 5.91316 14.2208 5.95718L11.6648 1.04318C11.5358 0.793434 11.2673 0.638184 10.9996 0.638184C10.7318 0.638184 10.4633 0.793434 10.3343 1.04243L7.41456 6.65543C7.36056 6.64868 7.30656 6.63818 7.24956 6.63818C6.92764 6.63807 6.61423 6.74153 6.35564 6.93327C6.09706 7.125 5.90701 7.39484 5.8136 7.70291C5.72018 8.01097 5.72836 8.34091 5.8369 8.64398C5.94545 8.94704 6.14862 9.20714 6.41638 9.38584C6.68414 9.56454 7.00229 9.65236 7.3238 9.63632C7.64532 9.62027 7.95315 9.50122 8.20179 9.29676C8.45043 9.09229 8.6267 8.81326 8.70454 8.5009C8.78238 8.18853 8.75767 7.85942 8.63406 7.56218L10.9996 3.01418L12.9616 6.78668C12.6634 7.17428 12.5011 7.64919 12.4996 8.13818C12.4996 9.37868 13.5091 10.3882 14.7496 10.3882C15.9901 10.3882 16.9996 9.37868 16.9996 8.13818C16.9996 6.89768 15.9901 5.88818 14.7496 5.88818ZM14.7496 8.88818C14.5564 8.87954 14.3741 8.79675 14.2405 8.65704C14.1069 8.51734 14.0324 8.33148 14.0324 8.13818C14.0324 7.94488 14.1069 7.75902 14.2405 7.61932C14.3741 7.47961 14.5564 7.39682 14.7496 7.38818C14.9427 7.39682 15.125 7.47961 15.2586 7.61932C15.3922 7.75902 15.4668 7.94488 15.4668 8.13818C15.4668 8.33148 15.3922 8.51734 15.2586 8.65704C15.125 8.79675 14.9427 8.87954 14.7496 8.88818Z" fill="#082C25"/>
</g>
<defs>
<clipPath id="clip0_1932_329">
<rect width="22" height="22" fill="white" transform="translate(0 0.513184)"/>
</clipPath>
</defs>
</svg>
