<svg width="11" height="12" viewBox="0 0 11 12" fill="none" xmlns="http://www.w3.org/2000/svg">
<path d="M5.34287 0.727539C2.44385 0.727539 -0.00488281 3.17628 -0.00488281 6.07529C-0.00488281 8.97431 2.44385 11.423 5.34287 11.423C8.24189 11.423 10.6906 8.97431 10.6906 6.07529C10.6906 3.17628 8.24189 0.727539 5.34287 0.727539ZM5.34287 3.40142C6.26643 3.40142 6.9472 4.08165 6.9472 5.00574C6.9472 5.92983 6.26643 6.61007 5.34287 6.61007C4.41985 6.61007 3.73855 5.92983 3.73855 5.00574C3.73855 4.08165 4.41985 3.40142 5.34287 3.40142ZM2.61231 8.62724C3.092 7.92134 3.89203 7.45074 4.8081 7.45074H5.87765C6.79425 7.45074 7.59374 7.92134 8.07344 8.62724C7.72471 9.00295 7.30222 9.30268 6.83239 9.50769C6.36256 9.7127 5.85548 9.81859 5.34287 9.81872C4.83026 9.81859 4.32319 9.7127 3.85336 9.50769C3.38352 9.30268 2.96104 9.00295 2.61231 8.62724Z" fill="#082C25"/>
</svg>
