<svg width="48" height="48" viewBox="0 0 48 48" fill="none" xmlns="http://www.w3.org/2000/svg">
<circle cx="24" cy="24" r="24" fill="url(#paint0_linear_2785_2812)"/>
<path d="M21.7598 23.8017H23.6848L23.9064 21.865H21.9814L21.7598 23.8017Z" fill="white"/>
<path d="M29.588 12.3683C33.1813 12.6017 35.398 14.8183 35.6313 18.4117C35.6547 18.645 35.6663 18.8783 35.6663 19.1117V25.75C35.6663 26.3917 35.1413 26.9167 34.4997 26.9167H31.0347C28.7597 26.9167 26.9163 28.76 26.9163 31.035V34.5C26.9163 35.1417 26.3913 35.6667 25.7497 35.6667H19.1113C18.878 35.6667 18.6447 35.655 18.4113 35.6317C14.818 35.3983 12.6013 33.1817 12.368 29.5883C12.3447 29.355 12.333 29.1217 12.333 28.8883V19.1117C12.333 18.8783 12.3447 18.645 12.368 18.4117C12.6013 14.8183 14.818 12.6017 18.4113 12.3683C18.6447 12.345 18.878 12.3333 19.1113 12.3333H28.888C29.1213 12.3333 29.3547 12.345 29.588 12.3683Z" fill="#082C25"/>
<path d="M17.1121 22.8333H17.1226" stroke="white" stroke-width="2" stroke-linecap="round" stroke-linejoin="round"/>
<path d="M17.1121 27.5H17.1226" stroke="white" stroke-width="2" stroke-linecap="round" stroke-linejoin="round"/>
<path d="M20.3818 22.8333H26.7985" stroke="white" stroke-width="1.5" stroke-linecap="round" stroke-linejoin="round"/>
<path d="M20.5 27.5H24" stroke="white" stroke-width="1.5" stroke-linecap="round" stroke-linejoin="round"/>
<path d="M17.1121 18.1667H17.1226" stroke="white" stroke-width="2" stroke-linecap="round" stroke-linejoin="round"/>
<path d="M20.5 18.1667H28.6667" stroke="white" stroke-width="1.5" stroke-linecap="round" stroke-linejoin="round"/>
<path d="M34.4653 28.6667H31.0353C29.5537 28.6667 28.667 29.5533 28.667 31.035V34.465C28.667 35.9467 29.5537 36.8333 31.0353 36.8333H34.4653C35.947 36.8333 36.8337 35.9467 36.8337 34.465V31.035C36.8337 29.5533 35.947 28.6667 34.4653 28.6667ZM34.722 32.5283C34.582 32.6683 34.3953 32.7383 34.2087 32.7383C34.022 32.7383 33.8353 32.6683 33.6953 32.5283L33.4853 32.3183V34.9317C33.4853 35.34 33.1587 35.6667 32.7503 35.6667C32.342 35.6667 32.0153 35.34 32.0153 34.9317V32.3183L31.8053 32.5283C31.5253 32.8083 31.0587 32.8083 30.7787 32.5283C30.4987 32.2483 30.4987 31.7817 30.7787 31.5017L32.237 30.0433C32.2953 29.985 32.377 29.9383 32.4587 29.9033C32.482 29.8917 32.5053 29.8917 32.5287 29.88C32.587 29.8567 32.6453 29.845 32.7153 29.845C32.7387 29.845 32.762 29.845 32.7853 29.845C32.867 29.845 32.937 29.8567 33.0187 29.8917C33.0303 29.8917 33.0303 29.8917 33.042 29.8917C33.1237 29.9267 33.1937 29.9733 33.252 30.0317C33.2637 30.0433 33.2637 30.0433 33.2753 30.0433L34.7337 31.5017C35.0137 31.7817 35.0137 32.2483 34.722 32.5283Z" fill="white"/>
<path d="M34.5651 28.6667H30.9355C29.6833 28.6667 28.667 29.5813 28.667 30.7083V34.7917C28.667 35.9187 29.6833 36.8333 30.9355 36.8333H34.5651C35.8174 36.8333 36.8337 35.9187 36.8337 34.7917V30.7083C36.8337 29.5813 35.8174 28.6667 34.5651 28.6667ZM31.3257 35.4572C31.2395 35.5348 31.1261 35.5757 31.0081 35.5757C30.8856 35.5757 30.7722 35.5348 30.686 35.4572C30.5998 35.3797 30.5499 35.2776 30.5499 35.1673C30.5499 35.0612 30.5998 34.955 30.686 34.8774C30.7268 34.8407 30.7767 34.8121 30.8312 34.7917C30.9446 34.7508 31.0671 34.7508 31.1805 34.7917C31.2077 34.7998 31.235 34.8121 31.2576 34.8284C31.2849 34.8407 31.3075 34.8611 31.3257 34.8774C31.4119 34.955 31.4618 35.0612 31.4618 35.1673C31.4618 35.2776 31.4119 35.3797 31.3257 35.4572ZM30.5499 33.534C30.5499 33.4809 30.5635 33.4278 30.5862 33.3788C30.6088 33.3257 30.6406 33.2849 30.686 33.2441C30.7903 33.1502 30.9491 33.1052 31.0943 33.1338C31.1215 33.1379 31.1533 33.1461 31.1805 33.1583C31.2077 33.1665 31.235 33.1787 31.2576 33.1951C31.2849 33.2073 31.3075 33.2277 31.3257 33.2441C31.3665 33.2849 31.4028 33.3257 31.4255 33.3788C31.4482 33.4278 31.4573 33.4809 31.4573 33.534C31.4573 33.6442 31.4119 33.7463 31.3257 33.8239C31.2395 33.9015 31.1261 33.9423 31.0081 33.9423C30.9446 33.9423 30.8856 33.9301 30.8312 33.9097C30.7767 33.8892 30.7268 33.8607 30.686 33.8239C30.5998 33.7463 30.5499 33.6442 30.5499 33.534ZM33.1405 35.4572C33.0997 35.494 33.0498 35.5226 32.9953 35.543C32.9409 35.5634 32.8819 35.5757 32.8184 35.5757C32.7004 35.5757 32.587 35.5348 32.5008 35.4572C32.4146 35.3797 32.3647 35.2776 32.3647 35.1673C32.3647 35.1387 32.3692 35.1142 32.3738 35.0857C32.3828 35.0612 32.3919 35.0367 32.401 35.0122C32.4146 34.9877 32.4282 34.9632 32.4418 34.9387C32.46 34.9182 32.4781 34.8978 32.5008 34.8774C32.5416 34.8407 32.5915 34.8121 32.646 34.7917C32.8138 34.7304 33.0135 34.7631 33.1405 34.8774C33.2267 34.955 33.2721 35.0612 33.2721 35.1673C33.2721 35.2776 33.2267 35.3797 33.1405 35.4572ZM33.1405 33.8239C33.0543 33.9015 32.9409 33.9423 32.8184 33.9423C32.7004 33.9423 32.587 33.9015 32.5008 33.8239C32.4146 33.7463 32.3647 33.6442 32.3647 33.534C32.3647 33.4278 32.4146 33.3217 32.5008 33.2441C32.6687 33.093 32.9726 33.093 33.1405 33.2441C33.1813 33.2849 33.2176 33.3257 33.2403 33.3788C33.263 33.4278 33.2721 33.4809 33.2721 33.534C33.2721 33.6442 33.2267 33.7463 33.1405 33.8239ZM31.3892 32.1212C30.9219 32.1212 30.5363 31.7782 30.5363 31.3535V30.9452C30.5363 30.5246 30.9174 30.1775 31.3892 30.1775H34.1114C34.5788 30.1775 34.9644 30.5205 34.9644 30.9452V31.3535C34.9644 31.7741 34.5833 32.1212 34.1114 32.1212H31.3892ZM34.9553 35.4572C34.8691 35.5348 34.7557 35.5757 34.6332 35.5757C34.5742 35.5757 34.5152 35.5634 34.4608 35.543C34.4063 35.5226 34.3564 35.494 34.3156 35.4572C34.2294 35.3797 34.184 35.2776 34.184 35.1673C34.184 35.0612 34.2294 34.955 34.3156 34.8774C34.4381 34.7631 34.6423 34.7304 34.8101 34.7917C34.8646 34.8121 34.9145 34.8407 34.9553 34.8774C35.0415 34.955 35.0869 35.0612 35.0869 35.1673C35.0869 35.2776 35.0415 35.3797 34.9553 35.4572ZM35.0551 33.6892C35.0325 33.7382 35.0007 33.7831 34.9553 33.8239C34.8691 33.9015 34.7557 33.9423 34.6332 33.9423C34.5152 33.9423 34.4018 33.9015 34.3156 33.8239C34.2294 33.7463 34.1795 33.6442 34.1795 33.534C34.1795 33.4278 34.2294 33.3217 34.3156 33.2441C34.4835 33.093 34.7875 33.093 34.9553 33.2441C35.0415 33.3217 35.0914 33.4278 35.0914 33.534C35.0914 33.5871 35.0778 33.6402 35.0551 33.6892Z" fill="#082C25"/>
<defs>
<linearGradient id="paint0_linear_2785_2812" x1="26.0667" y1="-64.1928" x2="16.4007" y2="50.6859" gradientUnits="userSpaceOnUse">
<stop stop-color="#D1C2F9"/>
<stop offset="0.883614" stop-color="white"/>
<stop offset="1" stop-color="white" stop-opacity="0"/>
</linearGradient>
</defs>
</svg>
