<svg width="23" height="24" viewBox="0 0 23 24" fill="none" xmlns="http://www.w3.org/2000/svg">
<ellipse cx="11.8578" cy="13.842" rx="9.62735" ry="9.62735" fill="#082C25"/>
<ellipse cx="10.4584" cy="12.9667" rx="9.62735" ry="9.62735" fill="#B6F485"/>
<ellipse cx="10.4582" cy="12.9667" rx="8.75214" ry="8.75214" fill="url(#paint0_linear_4508_2360)"/>
<g clip-path="url(#clip0_4508_2360)">
<path d="M7.01803 8.18872H8.42149C8.43673 8.18956 8.45154 8.19411 8.46463 8.20196C8.47772 8.20982 8.4887 8.22074 8.49662 8.2338L10.3674 11.3638H12.2585L12.2585 8.28339C12.2582 8.27113 12.2603 8.25893 12.2648 8.2475C12.2692 8.23608 12.2759 8.22566 12.2844 8.21685C12.293 8.20804 12.3032 8.20101 12.3145 8.19618C12.3257 8.19135 12.3378 8.18882 12.3501 8.18872H13.6484C13.6729 8.18872 13.6964 8.19846 13.7137 8.21579C13.7311 8.23312 13.7408 8.25662 13.7408 8.28113L13.7408 11.3615H14.5672C14.5918 11.3615 14.6153 11.3713 14.6326 11.3886C14.6499 11.4059 14.6597 11.4294 14.6597 11.4539L14.6597 12.2871C14.6597 12.3117 14.6499 12.3352 14.6326 12.3525C14.6153 12.3698 14.5918 12.3796 14.5672 12.3796H13.7408L13.7408 13.0865H14.5672C14.5916 13.0865 14.615 13.0962 14.6323 13.1133C14.6496 13.1305 14.6595 13.1538 14.6597 13.1782L14.6597 14.0099C14.6595 14.0343 14.6496 14.0576 14.6323 14.0748C14.615 14.0919 14.5916 14.1016 14.5672 14.1016H13.7408L13.7408 17.3322C13.7408 17.3567 13.7311 17.3802 13.7137 17.3976C13.6964 17.4149 13.6729 17.4246 13.6484 17.4246H12.3501C12.3349 17.4238 12.3201 17.4192 12.307 17.4114C12.2939 17.4035 12.2829 17.3926 12.275 17.3796L10.3674 14.1016H8.50864L8.50864 17.3322C8.50766 17.3565 8.49718 17.3794 8.47947 17.3959C8.46176 17.4125 8.43823 17.4215 8.41397 17.4209H7.01803C6.99352 17.4209 6.97002 17.4111 6.95269 17.3938C6.93535 17.3765 6.92562 17.353 6.92562 17.3285L6.92562 14.1016H6.09917C6.07532 14.1008 6.05269 14.0908 6.03602 14.0737C6.01936 14.0566 6.00995 14.0338 6.00977 14.0099L6.00977 13.1782C6.00996 13.1538 6.01979 13.1305 6.0371 13.1133C6.05441 13.0962 6.0778 13.0865 6.10218 13.0865H6.92862L6.92862 12.3796H6.10218C6.09004 12.3796 6.07802 12.3772 6.06681 12.3725C6.0556 12.3679 6.04541 12.3611 6.03683 12.3525C6.0195 12.3352 6.00977 12.3117 6.00977 12.2871L6.00977 11.4562C6.00977 11.4317 6.0195 11.4082 6.03683 11.3908C6.05416 11.3735 6.07767 11.3638 6.10218 11.3638H6.92862L6.92862 8.28339C6.92802 8.259 6.93707 8.23537 6.95382 8.21763C6.97057 8.1999 6.99365 8.18951 7.01803 8.18872ZM8.50864 12.3796L8.50864 13.0865H9.78587L9.4553 12.3796H8.50864ZM11.269 13.0865H12.2585L12.2585 12.3796H10.9444L11.269 13.0865ZM12.2585 14.1016H11.861L12.2585 14.928L12.2585 14.1016ZM8.50864 10.65L8.50864 11.3638H8.85199L8.50864 10.65Z" fill="#082C25"/>
</g>
<ellipse cx="12.6957" cy="11.3256" rx="9.62735" ry="9.62735" fill="#082C25"/>
<ellipse cx="11.2963" cy="10.4506" rx="9.62735" ry="9.62735" fill="#B6F485"/>
<ellipse cx="11.2961" cy="10.4504" rx="8.75214" ry="8.75214" fill="url(#paint1_linear_4508_2360)"/>
<g clip-path="url(#clip1_4508_2360)">
<path d="M7.85592 5.67261H9.25938C9.27462 5.67345 9.28943 5.67799 9.30252 5.68585C9.31561 5.6937 9.32659 5.70463 9.33451 5.71769L11.2053 8.84766H13.0963L13.0963 5.76727C13.096 5.75501 13.0982 5.74281 13.1026 5.73139C13.1071 5.71997 13.1138 5.70954 13.1223 5.70073C13.1309 5.69192 13.1411 5.6849 13.1523 5.68007C13.1636 5.67524 13.1757 5.6727 13.188 5.67261H14.4863C14.5108 5.67261 14.5343 5.68234 14.5516 5.69967C14.5689 5.717 14.5787 5.74051 14.5787 5.76502L14.5787 8.84541H15.4051C15.4296 8.84541 15.4531 8.85515 15.4705 8.87248C15.4878 8.88981 15.4975 8.91331 15.4975 8.93782L15.4975 9.77103C15.4975 9.79554 15.4878 9.81905 15.4705 9.83638C15.4531 9.85371 15.4296 9.86344 15.4051 9.86344H14.5787L14.5787 10.5704H15.4051C15.4295 10.5704 15.4529 10.5801 15.4702 10.5972C15.4875 10.6144 15.4973 10.6377 15.4975 10.6621L15.4975 11.4938C15.4973 11.5182 15.4875 11.5415 15.4702 11.5587C15.4529 11.5758 15.4295 11.5855 15.4051 11.5855H14.5787L14.5787 14.8161C14.5787 14.8406 14.5689 14.8641 14.5516 14.8815C14.5343 14.8988 14.5108 14.9085 14.4863 14.9085H13.188C13.1728 14.9077 13.1579 14.9031 13.1449 14.8953C13.1318 14.8874 13.1208 14.8765 13.1129 14.8634L11.2053 11.5855H9.34653L9.34653 14.8161C9.34555 14.8404 9.33507 14.8632 9.31736 14.8798C9.29965 14.8964 9.27612 14.9054 9.25186 14.9048H7.85592C7.83141 14.9048 7.80791 14.895 7.79058 14.8777C7.77325 14.8604 7.76351 14.8369 7.76351 14.8124L7.76351 11.5855H6.93706C6.91321 11.5847 6.89058 11.5747 6.87391 11.5576C6.85725 11.5405 6.84784 11.5177 6.84766 11.4938L6.84766 10.6621C6.84785 10.6377 6.85768 10.6144 6.87499 10.5972C6.8923 10.5801 6.91569 10.5704 6.94007 10.5704H7.76651L7.76651 9.86344H6.94007C6.92793 9.86344 6.91592 9.86105 6.9047 9.85641C6.89349 9.85176 6.8833 9.84496 6.87472 9.83638C6.85739 9.81905 6.84766 9.79554 6.84766 9.77103L6.84766 8.94008C6.84766 8.91557 6.85739 8.89206 6.87472 8.87473C6.89205 8.8574 6.91556 8.84766 6.94007 8.84766H7.76651L7.76651 5.76727C7.76591 5.74289 7.77496 5.71925 7.79171 5.70152C7.80846 5.68379 7.83154 5.67339 7.85592 5.67261ZM9.34653 9.86344L9.34653 10.5704H10.6238L10.2932 9.86344H9.34653ZM12.1069 10.5704H13.0963L13.0963 9.86344H11.7823L12.1069 10.5704ZM13.0963 11.5855H12.6989L13.0963 12.4119L13.0963 11.5855ZM9.34653 8.13392L9.34653 8.84766H9.68988L9.34653 8.13392Z" fill="#082C25"/>
</g>
<defs>
<linearGradient id="paint0_linear_4508_2360" x1="10.4582" y1="4.2146" x2="-11.5972" y2="68.3678" gradientUnits="userSpaceOnUse">
<stop stop-color="#E9FDF2"/>
<stop offset="1" stop-color="white"/>
</linearGradient>
<linearGradient id="paint1_linear_4508_2360" x1="11.2961" y1="1.69824" x2="-10.7593" y2="65.8514" gradientUnits="userSpaceOnUse">
<stop stop-color="#E9FDF2"/>
<stop offset="1" stop-color="white"/>
</linearGradient>
<clipPath id="clip0_4508_2360">
<rect width="8.64688" height="9.23216" fill="white" transform="translate(6.00977 8.18872)"/>
</clipPath>
<clipPath id="clip1_4508_2360">
<rect width="8.64688" height="9.23216" fill="white" transform="translate(6.84766 5.67261)"/>
</clipPath>
</defs>
</svg>
