<svg width="16" height="17" viewBox="0 0 16 17" fill="none" xmlns="http://www.w3.org/2000/svg">
<path d="M8 1.92871C6.73915 1.92871 5.50661 2.3026 4.45824 3.00309C3.40988 3.70359 2.59278 4.69923 2.11027 5.8641C1.62776 7.02898 1.50152 8.31078 1.7475 9.54741C1.99348 10.784 2.60064 11.92 3.4922 12.8115C4.38376 13.7031 5.51967 14.3102 6.7563 14.5562C7.99293 14.8022 9.27473 14.676 10.4396 14.1934C11.6045 13.7109 12.6001 12.8938 13.3006 11.8455C14.0011 10.7971 14.375 9.56457 14.375 8.30371C14.373 6.61356 13.7007 4.99321 12.5056 3.7981C11.3105 2.60298 9.69015 1.9307 8 1.92871ZM8 13.9287C6.88748 13.9287 5.79995 13.5988 4.87492 12.9807C3.94989 12.3626 3.22892 11.4841 2.80318 10.4563C2.37744 9.42847 2.26604 8.29747 2.48309 7.20633C2.70013 6.11518 3.23586 5.11291 4.02253 4.32624C4.8092 3.53956 5.81148 3.00384 6.90262 2.78679C7.99376 2.56975 9.12476 2.68115 10.1526 3.10689C11.1804 3.53263 12.0589 4.2536 12.677 5.17863C13.2951 6.10365 13.625 7.19119 13.625 8.30371C13.6233 9.79505 13.0302 11.2248 11.9757 12.2794C10.9211 13.3339 9.49134 13.9271 8 13.9287ZM5.875 8.30371C5.875 8.74971 6.01533 9.18441 6.27611 9.54622C6.53689 9.90803 6.90491 10.1786 7.32802 10.3197C7.75113 10.4607 8.2079 10.465 8.63361 10.3321C9.05932 10.1991 9.4324 9.93551 9.7 9.57871C9.75976 9.49915 9.84868 9.44658 9.94719 9.43257C10.0457 9.41856 10.1458 9.44427 10.2253 9.50402C10.3049 9.56378 10.3574 9.6527 10.3715 9.75121C10.3855 9.84973 10.3598 9.94977 10.3 10.0293C9.93786 10.5119 9.43308 10.8683 8.85714 11.0481C8.28121 11.2279 7.6633 11.2219 7.09095 11.0311C6.51859 10.8402 6.02079 10.4741 5.66804 9.98459C5.31529 9.49511 5.12547 8.90706 5.12547 8.30371C5.12547 7.70037 5.31529 7.11231 5.66804 6.62283C6.02079 6.13334 6.51859 5.76724 7.09095 5.57637C7.6633 5.3855 8.28121 5.37953 8.85714 5.55931C9.43308 5.73909 9.93786 6.09551 10.3 6.57809C10.3598 6.65765 10.3855 6.7577 10.3715 6.85621C10.3574 6.95473 10.3049 7.04364 10.2253 7.1034C10.1458 7.16316 10.0457 7.18886 9.94719 7.17485C9.84868 7.16084 9.75976 7.10828 9.7 7.02871C9.4324 6.67191 9.05932 6.40835 8.63361 6.27537C8.2079 6.14239 7.75113 6.14672 7.32802 6.28776C6.90491 6.4288 6.53689 6.69939 6.27611 7.0612C6.01533 7.42302 5.875 7.85771 5.875 8.30371Z" fill="#082C25"/>
</svg>
