<svg width="48" height="48" viewBox="0 0 48 48" fill="none" xmlns="http://www.w3.org/2000/svg">
<circle cx="24" cy="24" r="24" fill="url(#paint0_linear_2785_2839)"/>
<g clip-path="url(#clip0_2785_2839)">
<path d="M32.0002 26C32.3855 26.0002 32.7558 26.1486 33.0346 26.4144C33.3134 26.6802 33.4792 27.0431 33.4978 27.4279C33.5163 27.8127 33.386 28.1898 33.1341 28.4812C32.8821 28.7726 32.5277 28.9558 32.1442 28.993L32.0002 29H19.6212L21.0612 30.44C21.334 30.7118 21.4918 31.0781 21.502 31.463C21.5121 31.8479 21.3739 32.222 21.1158 32.5078C20.8578 32.7936 20.4997 32.9692 20.1158 32.9983C19.7318 33.0274 19.3514 32.9077 19.0532 32.664L18.9392 32.561L15.1102 28.731C14.1362 27.757 14.7702 26.114 16.1012 26.006L16.2412 26H32.0002ZM26.9402 15.44C27.2026 15.1774 27.553 15.0214 27.9237 15.0022C28.2945 14.983 28.6591 15.1019 28.9472 15.336L29.0612 15.439L32.8902 19.269C33.8642 20.243 33.2302 21.886 31.8992 21.994L31.7592 22H16.0002C15.615 21.9998 15.2446 21.8514 14.9658 21.5856C14.6871 21.3198 14.5212 20.9569 14.5027 20.5721C14.4842 20.1873 14.6144 19.8102 14.8664 19.5188C15.1184 19.2274 15.4728 19.0442 15.8562 19.007L16.0002 19H28.3792L26.9392 17.56C26.6583 17.2787 26.5006 16.8975 26.5006 16.5C26.5006 16.1025 26.6593 15.7212 26.9402 15.44Z" fill="black"/>
</g>
<defs>
<linearGradient id="paint0_linear_2785_2839" x1="-19.6829" y1="-43.6552" x2="70.396" y2="-23.4455" gradientUnits="userSpaceOnUse">
<stop stop-color="#B6F485"/>
<stop offset="1" stop-color="#E9FDF2"/>
</linearGradient>
<clipPath id="clip0_2785_2839">
<rect width="24" height="24" fill="white" transform="translate(12 12)"/>
</clipPath>
</defs>
</svg>
