<svg width="30" height="28" viewBox="0 0 30 28" fill="none" xmlns="http://www.w3.org/2000/svg">
<path d="M2.69333 27.3327C1.92556 27.3327 1.285 27.076 0.771667 26.5627C0.258333 26.0494 0.00111111 25.4082 0 24.6394V18.166H11.6667V20.666H18.3333V18.166H30V24.641C30 25.4077 29.7433 26.0477 29.23 26.561C28.7167 27.0744 28.0761 27.3316 27.3083 27.3327H2.69333ZM13.3333 18.9994V15.666H16.6667V18.9994H13.3333ZM0 16.4994V8.35935C0 7.59158 0.257222 6.95102 0.771667 6.43769C1.28611 5.92435 1.92611 5.66713 2.69167 5.66602H10V3.35769C10 2.59102 10.2572 1.95046 10.7717 1.43602C11.2861 0.921575 11.9267 0.664908 12.6933 0.666019H17.3083C18.075 0.666019 18.7156 0.922686 19.23 1.43602C19.7444 1.94935 20.0011 2.58991 20 3.35769V5.66602H27.3083C28.075 5.66602 28.715 5.92324 29.2283 6.43769C29.7417 6.95213 29.9989 7.59269 30 8.35935V16.4994H18.3333V13.9994H11.6667V16.4994H0ZM11.6667 5.66602H18.3333V3.35769C18.3333 3.10213 18.2267 2.86713 18.0133 2.65269C17.8 2.43824 17.565 2.33157 17.3083 2.33269H12.6917C12.4361 2.33269 12.2011 2.43935 11.9867 2.65269C11.7722 2.86602 11.6656 3.10102 11.6667 3.35769V5.66602Z" fill="#030F0D"/>
</svg>
