<svg width="10" height="11" viewBox="0 0 10 11" fill="none" xmlns="http://www.w3.org/2000/svg">
<path d="M4.95535 1.16406C2.68071 1.16406 0.827148 3.01763 0.827148 5.29227C0.827148 7.56691 2.68071 9.42047 4.95535 9.42047C7.22999 9.42047 9.08356 7.56691 9.08356 5.29227C9.08356 3.01763 7.22999 1.16406 4.95535 1.16406ZM4.64574 3.64099C4.64574 3.47173 4.7861 3.33137 4.95535 3.33137C5.12461 3.33137 5.26497 3.47173 5.26497 3.64099V5.70509C5.26497 5.87434 5.12461 6.0147 4.95535 6.0147C4.7861 6.0147 4.64574 5.87434 4.64574 5.70509V3.64099ZM5.33515 7.10042C5.31451 7.15409 5.28561 7.19537 5.24846 7.23665C5.20717 7.27381 5.16176 7.3027 5.11223 7.32334C5.06269 7.34399 5.00902 7.35637 4.95535 7.35637C4.90169 7.35637 4.84802 7.34399 4.79848 7.32334C4.74894 7.3027 4.70353 7.27381 4.66225 7.23665C4.6251 7.19537 4.5962 7.15409 4.57556 7.10042C4.55492 7.05088 4.54253 6.99722 4.54253 6.94355C4.54253 6.88988 4.55492 6.83622 4.57556 6.78668C4.5962 6.73714 4.6251 6.69173 4.66225 6.65045C4.70353 6.61329 4.74894 6.5844 4.79848 6.56375C4.89756 6.52247 5.01315 6.52247 5.11223 6.56375C5.16176 6.5844 5.20717 6.61329 5.24846 6.65045C5.28561 6.69173 5.31451 6.73714 5.33515 6.78668C5.35579 6.83622 5.36817 6.88988 5.36817 6.94355C5.36817 6.99722 5.35579 7.05088 5.33515 7.10042Z" fill="#2B2F08"/>
</svg>
