<svg width="11" height="12" viewBox="0 0 11 12" fill="none" xmlns="http://www.w3.org/2000/svg">
<path d="M9.74915 4.62936C9.62181 4.42737 9.48568 4.23855 9.34517 4.06291C9.1827 3.85653 8.87532 3.83896 8.69089 4.02339L7.37356 5.34072C7.47017 5.63053 7.48773 5.96425 7.39991 6.31115C7.24622 6.9303 6.74563 7.43088 6.12649 7.58457C5.77959 7.67239 5.44587 7.65483 5.15606 7.55822C5.15606 7.55822 4.52813 8.18615 4.07585 8.63843C3.85629 8.85799 3.92655 9.24441 4.22075 9.35857C4.6906 9.53861 5.17801 9.63082 5.6786 9.63082C6.46021 9.63082 7.21987 9.40249 7.91367 8.97655C8.62063 8.53744 9.25734 7.89195 9.7711 7.07081C10.1883 6.40775 10.1663 5.29242 9.74915 4.62936Z" fill="white" fill-opacity="0.8"/>
<path d="M6.56571 4.98067L4.7917 6.75467C4.56776 6.52634 4.42285 6.21018 4.42285 5.86767C4.42285 5.17827 4.98491 4.61182 5.67871 4.61182C6.02121 4.61182 6.33737 4.75672 6.56571 4.98067Z" fill="white" fill-opacity="0.8"/>
<path d="M8.42265 3.12323L6.93406 4.61181C6.61351 4.28687 6.17001 4.09366 5.67821 4.09366C4.6946 4.09366 3.90421 4.88845 3.90421 5.86767C3.90421 6.35947 4.1018 6.80297 4.42236 7.12352L2.93816 8.6121H2.93377C2.44636 8.2169 1.99847 7.71193 1.61644 7.11474C1.17733 6.42533 1.17733 5.3056 1.61644 4.6162C2.12581 3.81702 2.74935 3.18909 3.44314 2.75877C4.13693 2.33722 4.89659 2.10449 5.67821 2.10449C6.65743 2.10449 7.6059 2.46456 8.42265 3.12323Z" fill="white" fill-opacity="0.8"/>
<path d="M6.93402 5.86768C6.93402 6.55708 6.37196 7.12353 5.67816 7.12353C5.65182 7.12353 5.62986 7.12353 5.60352 7.11475L6.92524 5.79303C6.93402 5.81938 6.93402 5.84133 6.93402 5.86768Z" fill="white" fill-opacity="0.8"/>
<path d="M9.96905 1.57756C9.83732 1.44583 9.62215 1.44583 9.49042 1.57756L1.38884 9.68353C1.25711 9.81526 1.25711 10.0304 1.38884 10.1622C1.45471 10.2236 1.53814 10.2588 1.62596 10.2588C1.71378 10.2588 1.79721 10.2236 1.86308 10.1578L9.96905 2.0518C10.1052 1.92007 10.1052 1.70929 9.96905 1.57756Z" fill="white" fill-opacity="0.8"/>
</svg>
