<svg width="30" height="30" viewBox="0 0 30 30" fill="none" xmlns="http://www.w3.org/2000/svg">
<circle cx="14.7857" cy="15.2143" r="14.7857" fill="url(#paint0_linear_4501_36649)"/>
<g clip-path="url(#clip0_4501_36649)">
<path d="M17.9397 13.9082C17.5933 13.5618 17.1235 13.3672 16.6336 13.3672C16.1438 13.3672 15.674 13.5618 15.3276 13.9082C14.9812 14.2546 14.7866 14.7244 14.7866 15.2143C14.7866 15.7042 14.9812 16.174 15.3276 16.5204C15.4991 16.6919 15.7027 16.828 15.9268 16.9208C16.1509 17.0136 16.3911 17.0614 16.6336 17.0614C16.8762 17.0614 17.1164 17.0136 17.3405 16.9208C17.5646 16.828 17.7682 16.6919 17.9397 16.5204C18.1112 16.3489 18.2473 16.1452 18.3401 15.9212C18.4329 15.6971 18.4807 15.4569 18.4807 15.2143C18.4807 14.9718 18.4329 14.7316 18.3401 14.5075C18.2473 14.2834 18.1112 14.0798 17.9397 13.9082ZM11.7051 11.5179V18.9107H21.5622V11.5179H11.7051ZM20.3301 16.4465C20.0036 16.4465 19.6894 16.5758 19.4614 16.8099C19.2273 17.0379 19.0979 17.3521 19.0979 17.6786H14.1694C14.1694 17.3521 14.04 17.0379 13.8059 16.8099C13.5779 16.5758 13.2637 16.4465 12.9372 16.4465V13.9822C13.2637 13.9822 13.5779 13.8528 13.8059 13.6187C14.04 13.3907 14.1694 13.0765 14.1694 12.75H19.0979C19.0979 13.0765 19.2273 13.3907 19.4614 13.6187C19.6894 13.8528 20.0036 13.9822 20.3301 13.9822V16.4465ZM10.4729 12.75H9.24079C8.90195 12.75 8.62472 12.4728 8.62472 12.134C8.62472 11.7951 8.90195 11.5179 9.24079 11.5179H10.4729V12.75ZM10.4729 15.8304H8.62472C8.28588 15.8304 8.00865 15.5532 8.00865 15.2143C8.00865 14.8755 8.28588 14.5982 8.62472 14.5982H10.4729V15.8304ZM10.4729 18.9107H8.00865C7.66858 18.9107 7.39258 18.6335 7.39258 18.2947C7.39258 17.9558 7.66858 17.6786 8.00865 17.6786H10.4729V18.9107Z" fill="#082C25"/>
</g>
<defs>
<linearGradient id="paint0_linear_4501_36649" x1="16.0589" y1="-39.1187" x2="10.104" y2="31.6547" gradientUnits="userSpaceOnUse">
<stop stop-color="#D1C2F9"/>
<stop offset="0.883614" stop-color="white"/>
<stop offset="1" stop-color="white" stop-opacity="0"/>
</linearGradient>
<clipPath id="clip0_4501_36649">
<rect width="14.7857" height="14.7857" fill="white" transform="translate(7.39258 7.82141)"/>
</clipPath>
</defs>
</svg>
