<svg width="48" height="48" viewBox="0 0 48 48" fill="none" xmlns="http://www.w3.org/2000/svg">
<circle cx="24" cy="24" r="24" fill="url(#paint0_linear_2785_2808)"/>
<path d="M29.12 21.88C28.5577 21.3177 27.7952 21.0019 27 21.0019C26.2048 21.0019 25.4423 21.3177 24.88 21.88C24.3177 22.4423 24.0019 23.2048 24.0019 24C24.0019 24.7952 24.3177 25.5577 24.88 26.12C25.1584 26.3984 25.4889 26.6192 25.8527 26.7699C26.2164 26.9206 26.6063 26.9981 27 26.9981C27.3937 26.9981 27.7836 26.9206 28.1473 26.7699C28.5111 26.6192 28.8416 26.3984 29.12 26.12C29.3984 25.8416 29.6192 25.5111 29.7699 25.1473C29.9206 24.7836 29.9981 24.3937 29.9981 24C29.9981 23.6063 29.9206 23.2164 29.7699 22.8527C29.6192 22.4889 29.3984 22.1584 29.12 21.88ZM19 18V30H35V18H19ZM33 26C32.47 26 31.96 26.21 31.59 26.59C31.21 26.96 31 27.47 31 28H23C23 27.47 22.79 26.96 22.41 26.59C22.04 26.21 21.53 26 21 26V22C21.53 22 22.04 21.79 22.41 21.41C22.79 21.04 23 20.53 23 20H31C31 20.53 31.21 21.04 31.59 21.41C31.96 21.79 32.47 22 33 22V26ZM17 20H15C14.45 20 14 19.55 14 19C14 18.45 14.45 18 15 18H17V20ZM17 25H14C13.45 25 13 24.55 13 24C13 23.45 13.45 23 14 23H17V25ZM17 30H13C12.448 30 12 29.55 12 29C12 28.45 12.448 28 13 28H17V30Z" fill="#082C25"/>
<defs>
<linearGradient id="paint0_linear_2785_2808" x1="26.0667" y1="-64.1928" x2="16.4007" y2="50.6859" gradientUnits="userSpaceOnUse">
<stop stop-color="#D1C2F9"/>
<stop offset="0.883614" stop-color="white"/>
<stop offset="1" stop-color="white" stop-opacity="0"/>
</linearGradient>
</defs>
</svg>
