<svg width="47" height="47" viewBox="0 0 47 47" fill="none" xmlns="http://www.w3.org/2000/svg">
<path d="M1.5 23.507C1.5 11.2204 11.35 1.25977 23.5 1.25977C35.65 1.25977 45.5 11.2204 45.5 23.507V29.4395C45.5 29.7126 45.2811 29.9339 45.0111 29.9339V41.3047C45.0111 43.4889 43.2599 45.2598 41.1 45.2598H33.2778V29.4395H44.5222V23.507C44.5222 11.7665 35.11 2.24853 23.5 2.24853C11.89 2.24853 2.47778 11.7665 2.47778 23.507V29.4395H13.7222V45.2598H5.9C3.74009 45.2598 1.98889 43.4889 1.98889 41.3047V29.9339C1.71888 29.9339 1.5 29.7126 1.5 29.4395V23.507Z" fill="#030F0D" stroke="#030F0D" stroke-width="2" stroke-miterlimit="10" stroke-linecap="round" stroke-linejoin="round"/>
</svg>
