<svg width="48" height="48" viewBox="0 0 48 48" fill="none" xmlns="http://www.w3.org/2000/svg">
<circle cx="24" cy="24" r="24" fill="url(#paint0_linear_2785_2778)"/>
<path d="M28.4097 12.3333H19.5897C15.1797 12.3333 14.083 13.5117 14.083 18.2133V31.35C14.083 34.4533 15.7863 35.1883 17.8513 32.9717L17.863 32.96C18.8197 31.945 20.278 32.0267 21.1063 33.135L22.2847 34.71C23.2297 35.9583 24.758 35.9583 25.703 34.71L26.8813 33.135C27.7213 32.015 29.1797 31.9333 30.1363 32.96C32.213 35.1767 33.9047 34.4417 33.9047 31.3383V18.2133C33.9163 13.5117 32.8197 12.3333 28.4097 12.3333ZM19.0763 24C18.4347 24 17.9097 23.475 17.9097 22.8333C17.9097 22.1917 18.4347 21.6667 19.0763 21.6667C19.718 21.6667 20.243 22.1917 20.243 22.8333C20.243 23.475 19.718 24 19.0763 24ZM19.0763 19.3333C18.4347 19.3333 17.9097 18.8083 17.9097 18.1667C17.9097 17.525 18.4347 17 19.0763 17C19.718 17 20.243 17.525 20.243 18.1667C20.243 18.8083 19.718 19.3333 19.0763 19.3333ZM28.9347 23.7083H22.518C22.0397 23.7083 21.643 23.3117 21.643 22.8333C21.643 22.355 22.0397 21.9583 22.518 21.9583H28.9347C29.413 21.9583 29.8097 22.355 29.8097 22.8333C29.8097 23.3117 29.413 23.7083 28.9347 23.7083ZM28.9347 19.0417H22.518C22.0397 19.0417 21.643 18.645 21.643 18.1667C21.643 17.6883 22.0397 17.2917 22.518 17.2917H28.9347C29.413 17.2917 29.8097 17.6883 29.8097 18.1667C29.8097 18.645 29.413 19.0417 28.9347 19.0417Z" fill="#082C25"/>
<defs>
<linearGradient id="paint0_linear_2785_2778" x1="26.0667" y1="-64.1928" x2="16.4007" y2="50.6859" gradientUnits="userSpaceOnUse">
<stop stop-color="#D1C2F9"/>
<stop offset="0.883614" stop-color="white"/>
<stop offset="1" stop-color="white" stop-opacity="0"/>
</linearGradient>
</defs>
</svg>
