<svg width="84" height="21" viewBox="0 0 84 21" fill="none" xmlns="http://www.w3.org/2000/svg">
<path d="M1.50964 19.9948C1.32494 19.9948 1.16795 19.9302 1.03866 19.8009C0.909371 19.6716 0.844727 19.5146 0.844727 19.3299V1.29416C0.844727 1.09099 0.909371 0.924761 1.03866 0.795474C1.16795 0.666184 1.32494 0.60154 1.50964 0.60154H9.544C11.04 0.60154 12.2591 0.832413 13.201 1.29416C14.143 1.73743 14.8356 2.35617 15.2789 3.15037C15.7406 3.94457 15.9715 4.86806 15.9715 5.92084C15.9715 6.62269 15.8422 7.24143 15.5836 7.77705C15.3435 8.29421 15.0388 8.71901 14.6694 9.05147C14.3184 9.38392 13.9675 9.6425 13.6166 9.8272C14.3369 10.1597 14.9741 10.7137 15.5282 11.4895C16.0823 12.2652 16.3593 13.1887 16.3593 14.2599C16.3593 15.3681 16.11 16.3563 15.6113 17.2243C15.1126 18.0924 14.3738 18.7758 13.3949 19.2745C12.416 19.7547 11.2063 19.9948 9.76563 19.9948H1.50964ZM4.69568 17.0581H9.32236C10.3197 17.0581 11.077 16.7903 11.5941 16.2547C12.1113 15.7006 12.3699 15.0357 12.3699 14.2599C12.3699 13.4473 12.1021 12.7731 11.5664 12.2375C11.0493 11.7019 10.3013 11.4341 9.32236 11.4341H4.69568V17.0581ZM4.69568 8.55278H9.04531C10.0242 8.55278 10.7538 8.32191 11.234 7.86017C11.7327 7.37995 11.982 6.76121 11.982 6.00395C11.982 5.22822 11.7327 4.62795 11.234 4.20315C10.7538 3.75987 10.0242 3.53824 9.04531 3.53824H4.69568V8.55278Z" fill="#082C25"/>
<path d="M25.711 20.2719C23.6608 20.2719 22.0355 19.6808 20.835 18.4988C19.6344 17.3167 18.988 15.6359 18.8956 13.4565C18.8772 13.2718 18.8679 13.0409 18.8679 12.7639C18.8679 12.4684 18.8772 12.2375 18.8956 12.0713C18.9695 10.686 19.2835 9.48551 19.8376 8.46967C20.4101 7.45383 21.1951 6.6781 22.1925 6.14248C23.1898 5.58838 24.3627 5.31134 25.711 5.31134C27.207 5.31134 28.463 5.62532 29.4788 6.2533C30.4947 6.8628 31.2611 7.72164 31.7783 8.82983C32.2955 9.91955 32.554 11.1847 32.554 12.6254V13.2072C32.554 13.3919 32.4894 13.5489 32.3601 13.6781C32.2308 13.8074 32.0646 13.8721 31.8614 13.8721H22.6635C22.6635 13.8721 22.6635 13.8998 22.6635 13.9552C22.6635 14.0106 22.6635 14.0568 22.6635 14.0937C22.6819 14.7402 22.802 15.3404 23.0236 15.8945C23.2637 16.4301 23.6054 16.8642 24.0487 17.1966C24.5104 17.5291 25.0553 17.6953 25.6833 17.6953C26.2004 17.6953 26.6345 17.6214 26.9854 17.4737C27.3363 17.3075 27.6226 17.1228 27.8442 16.9196C28.0659 16.7164 28.2229 16.5502 28.3152 16.4209C28.4814 16.1993 28.6107 16.07 28.7031 16.033C28.8139 15.9776 28.9709 15.9499 29.1741 15.9499H31.5567C31.7414 15.9499 31.8891 16.0053 31.9999 16.1162C32.1292 16.227 32.1846 16.3655 32.1662 16.5317C32.1477 16.8272 31.9907 17.1874 31.6952 17.6122C31.4181 18.037 31.0118 18.4526 30.4762 18.8589C29.9406 19.2653 29.2664 19.607 28.4537 19.884C27.6595 20.1426 26.7453 20.2719 25.711 20.2719ZM22.6635 11.5449H28.7862V11.4618C28.7862 10.7415 28.6661 10.1135 28.426 9.57786C28.1859 9.04223 27.835 8.61743 27.3733 8.30344C26.9115 7.98946 26.3574 7.83246 25.711 7.83246C25.0645 7.83246 24.5104 7.98946 24.0487 8.30344C23.587 8.61743 23.236 9.04223 22.9959 9.57786C22.7743 10.1135 22.6635 10.7415 22.6635 11.4618V11.5449Z" fill="#082C25"/>
<path d="M41.7007 20.2719C39.6505 20.2719 38.0252 19.6808 36.8247 18.4988C35.6241 17.3167 34.9777 15.6359 34.8853 13.4565C34.8669 13.2718 34.8576 13.0409 34.8576 12.7639C34.8576 12.4684 34.8669 12.2375 34.8853 12.0713C34.9592 10.686 35.2732 9.48551 35.8273 8.46967C36.3999 7.45383 37.1848 6.6781 38.1822 6.14248C39.1796 5.58838 40.3524 5.31134 41.7007 5.31134C43.1967 5.31134 44.4527 5.62532 45.4685 6.2533C46.4844 6.8628 47.2509 7.72164 47.768 8.82983C48.2852 9.91955 48.5437 11.1847 48.5437 12.6254V13.2072C48.5437 13.3919 48.4791 13.5489 48.3498 13.6781C48.2205 13.8074 48.0543 13.8721 47.8511 13.8721H38.6532C38.6532 13.8721 38.6532 13.8998 38.6532 13.9552C38.6532 14.0106 38.6532 14.0568 38.6532 14.0937C38.6716 14.7402 38.7917 15.3404 39.0133 15.8945C39.2534 16.4301 39.5951 16.8642 40.0384 17.1966C40.5002 17.5291 41.045 17.6953 41.673 17.6953C42.1901 17.6953 42.6242 17.6214 42.9751 17.4737C43.326 17.3075 43.6123 17.1228 43.8339 16.9196C44.0556 16.7164 44.2126 16.5502 44.3049 16.4209C44.4712 16.1993 44.6004 16.07 44.6928 16.033C44.8036 15.9776 44.9606 15.9499 45.1638 15.9499H47.5464C47.7311 15.9499 47.8788 16.0053 47.9897 16.1162C48.1189 16.227 48.1744 16.3655 48.1559 16.5317C48.1374 16.8272 47.9804 17.1874 47.6849 17.6122C47.4079 18.037 47.0015 18.4526 46.4659 18.8589C45.9303 19.2653 45.2561 19.607 44.4435 19.884C43.6493 20.1426 42.735 20.2719 41.7007 20.2719ZM38.6532 11.5449H44.7759V11.4618C44.7759 10.7415 44.6559 10.1135 44.4157 9.57786C44.1756 9.04223 43.8247 8.61743 43.363 8.30344C42.9012 7.98946 42.3471 7.83246 41.7007 7.83246C41.0542 7.83246 40.5002 7.98946 40.0384 8.30344C39.5767 8.61743 39.2257 9.04223 38.9856 9.57786C38.764 10.1135 38.6532 10.7415 38.6532 11.4618V11.5449Z" fill="#082C25"/>
<path d="M52.1772 19.9948C51.9925 19.9948 51.8355 19.9302 51.7062 19.8009C51.5769 19.6716 51.5123 19.5146 51.5123 19.3299V0.989405C51.5123 0.804708 51.5769 0.647715 51.7062 0.518427C51.8355 0.389138 51.9925 0.324493 52.1772 0.324493H54.4767C54.6614 0.324493 54.8184 0.389138 54.9476 0.518427C55.0769 0.647715 55.1416 0.804708 55.1416 0.989405V19.3299C55.1416 19.5146 55.0769 19.6716 54.9476 19.8009C54.8184 19.9302 54.6614 19.9948 54.4767 19.9948H52.1772Z" fill="#082C25"/>
<path d="M64.2744 20.2719C63.1662 20.2719 62.215 20.1426 61.4208 19.884C60.6451 19.6254 60.0079 19.3022 59.5092 18.9143C59.0105 18.5265 58.6411 18.1386 58.401 17.7507C58.1609 17.3629 58.0316 17.0396 58.0131 16.7811C57.9946 16.5779 58.0501 16.4209 58.1793 16.3101C58.3271 16.1808 58.4841 16.1162 58.6503 16.1162H60.839C60.9129 16.1162 60.9775 16.1254 61.0329 16.1439C61.0883 16.1623 61.1622 16.2177 61.2546 16.3101C61.4947 16.5133 61.744 16.7257 62.0026 16.9473C62.2796 17.1689 62.6029 17.3629 62.9723 17.5291C63.3417 17.6769 63.8034 17.7507 64.3575 17.7507C65.0778 17.7507 65.6781 17.6122 66.1583 17.3352C66.657 17.0397 66.9063 16.6241 66.9063 16.0885C66.9063 15.7006 66.7955 15.3866 66.5739 15.1465C66.3707 14.9064 65.9828 14.694 65.4103 14.5093C64.8377 14.3061 64.025 14.0937 62.9723 13.8721C61.9379 13.632 61.0791 13.3272 60.3957 12.9578C59.7123 12.5884 59.2044 12.1267 58.872 11.5726C58.5395 11.0185 58.3733 10.3721 58.3733 9.63327C58.3733 8.91294 58.5857 8.22956 59.0105 7.58312C59.4538 6.91821 60.1002 6.37335 60.9498 5.94854C61.8179 5.52374 62.8891 5.31134 64.1636 5.31134C65.1609 5.31134 66.029 5.44062 66.7678 5.6992C67.5066 5.93931 68.1161 6.24406 68.5963 6.61346C69.095 6.98285 69.4736 7.36148 69.7322 7.74935C69.9908 8.11874 70.1293 8.44197 70.1478 8.71901C70.1662 8.92218 70.1108 9.08841 69.9815 9.2177C69.8522 9.32852 69.7045 9.38392 69.5383 9.38392H67.4881C67.3958 9.38392 67.3127 9.36545 67.2388 9.32851C67.1649 9.29157 67.091 9.2454 67.0171 9.18999C66.814 9.00529 66.5923 8.81136 66.3522 8.60819C66.1121 8.40503 65.8166 8.22956 65.4657 8.0818C65.1332 7.91558 64.6899 7.83246 64.1359 7.83246C63.434 7.83246 62.8984 7.98946 62.529 8.30344C62.1596 8.59896 61.9749 8.97759 61.9749 9.43933C61.9749 9.75332 62.058 10.0304 62.2242 10.2705C62.4089 10.4921 62.7691 10.7045 63.3047 10.9077C63.8403 11.1109 64.653 11.3233 65.7427 11.5449C66.9802 11.7665 67.9591 12.099 68.6794 12.5423C69.4182 12.9671 69.9354 13.4657 70.2309 14.0383C70.5449 14.5924 70.7019 15.2111 70.7019 15.8945C70.7019 16.7257 70.4525 17.4737 69.9538 18.1386C69.4736 18.8035 68.7533 19.3299 67.7929 19.7178C66.8509 20.0872 65.6781 20.2719 64.2744 20.2719Z" fill="#082C25"/>
<g clip-path="url(#clip0_2785_2892)">
<path d="M79.5675 19.7622C81.7341 19.7622 83.4905 18.0058 83.4905 15.8392C83.4905 13.6726 81.7341 11.9162 79.5675 11.9162C77.4009 11.9162 75.6445 13.6726 75.6445 15.8392C75.6445 18.0058 77.4009 19.7622 79.5675 19.7622Z" stroke="#082C25" stroke-width="0.831141"/>
<path d="M79.5906 15.395C79.8034 15.395 79.9582 15.3524 80.0511 15.2712C80.1439 15.1938 80.1943 15.0622 80.1943 14.8765C80.1943 14.6946 80.1439 14.5669 80.0511 14.4857C79.9582 14.4083 79.8034 14.3696 79.5906 14.3696H79.1572V15.395H79.5906ZM79.1572 16.1031V17.6122H78.1279V13.6228H79.699C80.2252 13.6228 80.6083 13.7118 80.8521 13.8898C81.0997 14.0639 81.2197 14.3425 81.2197 14.7256C81.2197 14.9887 81.1578 15.2054 81.0301 15.3757C80.9024 15.5421 80.7128 15.6697 80.4535 15.7471C80.5967 15.782 80.7205 15.8555 80.8327 15.9677C80.9449 16.0799 81.0572 16.2502 81.1694 16.4823L81.7305 17.6122H80.6354L80.1478 16.6216C80.0511 16.4243 79.9505 16.285 79.8499 16.2153C79.7493 16.1418 79.6138 16.1031 79.4474 16.1031H79.1572Z" fill="#082C25"/>
</g>
<defs>
<clipPath id="clip0_2785_2892">
<rect width="8.8655" height="8.8655" fill="white" transform="translate(75.1348 11.4064)"/>
</clipPath>
</defs>
</svg>
