<svg width="20" height="26" viewBox="0 0 20 26" fill="none" xmlns="http://www.w3.org/2000/svg">
<path d="M6.69088 5.61267H13.3579C13.8074 4.09591 14.378 3.32135 14.7502 2.81609C15.2007 2.20449 15.3606 1.98749 14.6632 1.32631C13.39 0.118528 9.08086 -0.697631 6.25578 0.846125C4.49012 1.81085 4.71358 2.1219 5.37202 3.03843C5.76694 3.58815 6.31833 4.35567 6.69088 5.61267Z" fill="#082C25"/>
<path d="M5.57003 6.90537C5.57003 6.46661 5.9255 6.11114 6.36425 6.11114H13.533C13.9717 6.11114 14.3268 6.46661 14.3268 6.90537C14.3268 7.34412 13.9717 7.69877 13.533 7.69877H6.36425C5.9255 7.69877 5.57003 7.34412 5.57003 6.90537Z" fill="#082C25"/>
<path d="M8.52397 17.3087V16.6867H9.35677L9.64758 17.3087H8.52397Z" fill="#082C25"/>
<path d="M11.8228 17.3087H10.9523L10.6668 16.6867H11.8228V17.3087Z" fill="#082C25"/>
<path d="M11.4731 18.2016H11.8228V18.9286L11.4731 18.2016Z" fill="#082C25"/>
<path d="M8.52397 15.7931V15.1652L8.82603 15.7931H8.52397Z" fill="#082C25"/>
<path fill-rule="evenodd" clip-rule="evenodd" d="M6.5556 8.37803H13.4082C13.7166 9.03598 14.4311 9.74134 15.28 10.5794C17.2698 12.5437 19.998 15.237 19.9635 19.7571C19.9221 25.1164 15.9213 26 9.99817 26H9.96608C4.04252 26 0.0417608 25.1164 0.000323153 19.7571C-0.0341321 15.2372 2.69398 12.544 4.68378 10.5796C5.53277 9.7415 6.24736 9.03606 6.5556 8.37803ZM8.4473 12.9999H7.21265C7.19121 13.0006 7.1709 13.0098 7.15617 13.0254C7.14143 13.041 7.13347 13.0618 7.134 13.0832V15.7931H6.40696C6.3854 15.7931 6.36472 15.8017 6.34947 15.8169C6.33423 15.8322 6.32566 15.8528 6.32566 15.8744V16.6054C6.32566 16.627 6.33423 16.6477 6.34947 16.6629C6.35702 16.6705 6.36598 16.6764 6.37585 16.6805C6.38571 16.6846 6.39628 16.6867 6.40696 16.6867H7.134V17.3087H6.40696C6.38551 17.3087 6.36493 17.3171 6.3497 17.3322C6.33448 17.3473 6.32584 17.3679 6.32566 17.3893V18.121C6.32582 18.142 6.3341 18.1621 6.34876 18.1771C6.36342 18.1922 6.38333 18.2009 6.40431 18.2016H7.13136V21.0404C7.13136 21.0619 7.13992 21.0826 7.15517 21.0979C7.17041 21.1131 7.19109 21.1217 7.21265 21.1217H8.44069C8.46204 21.1222 8.48273 21.1143 8.49831 21.0997C8.5139 21.0851 8.52311 21.065 8.52397 21.0437V18.2016H10.1592L11.8373 21.0853C11.8443 21.0968 11.8539 21.1064 11.8654 21.1133C11.877 21.1202 11.89 21.1242 11.9034 21.125H13.0455C13.0671 21.125 13.0878 21.1164 13.103 21.1012C13.1182 21.0859 13.1268 21.0652 13.1268 21.0437V18.2016H13.8539C13.8753 18.2016 13.8959 18.1931 13.9111 18.178C13.9263 18.1629 13.935 18.1424 13.9352 18.121V17.3893C13.935 17.3679 13.9263 17.3473 13.9111 17.3322C13.8959 17.3171 13.8753 17.3087 13.8539 17.3087H13.1268V16.6867H13.8539C13.8754 16.6867 13.8961 16.6782 13.9113 16.6629C13.9266 16.6477 13.9352 16.627 13.9352 16.6054V15.8724C13.9352 15.8509 13.9266 15.8302 13.9113 15.8149C13.8961 15.7997 13.8754 15.7911 13.8539 15.7911H13.1268V13.0812C13.1268 13.0597 13.1182 13.039 13.103 13.0238C13.0878 13.0085 13.0671 12.9999 13.0455 12.9999H11.9034C11.8926 13 11.8819 13.0023 11.872 13.0065C11.8621 13.0108 11.8531 13.0169 11.8456 13.0247C11.8381 13.0324 11.8322 13.0416 11.8283 13.0517C11.8244 13.0617 11.8225 13.0724 11.8228 13.0832V15.7931H10.1592L8.5134 13.0396C8.50643 13.0281 8.49678 13.0185 8.48526 13.0116C8.47374 13.0047 8.46071 13.0007 8.4473 12.9999Z" fill="#082C25"/>
</svg>
