<svg width="30" height="30" viewBox="0 0 30 30" fill="none" xmlns="http://www.w3.org/2000/svg">
<circle cx="14.7857" cy="14.7857" r="14.7857" fill="url(#paint0_linear_4501_36637)"/>
<mask id="mask0_4501_36637" style="mask-type:luminance" maskUnits="userSpaceOnUse" x="8" y="9" width="14" height="12">
<path d="M20.9464 10.7812C20.9464 10.5361 20.8491 10.3011 20.6758 10.1278C20.5025 9.95448 20.2674 9.85712 20.0223 9.85712H9.54911C9.30402 9.85712 9.06897 9.95448 8.89566 10.1278C8.72236 10.3011 8.625 10.5361 8.625 10.7812V13.5535H20.9464V10.7812Z" fill="white" stroke="white" stroke-width="1.23214" stroke-linecap="round" stroke-linejoin="round"/>
<path d="M8.65918 19.4155L12.4098 15.6267L14.4367 17.5673L16.9139 15.4018L18.2939 16.7473" stroke="white" stroke-width="1.23214" stroke-linecap="round" stroke-linejoin="round"/>
<path d="M20.946 12.9375V18.7902C20.946 19.0353 20.8486 19.2703 20.6753 19.4436C20.502 19.6169 20.267 19.7143 20.0219 19.7143H11.0889" stroke="white" stroke-width="1.23214" stroke-linecap="round" stroke-linejoin="round"/>
<path d="M13.2794 11.7054H18.824M10.8145 11.7054H11.4305" stroke="black" stroke-width="1.23214" stroke-linecap="round" stroke-linejoin="round"/>
<path d="M8.625 12.9375V15.7098" stroke="white" stroke-width="1.23214" stroke-linecap="round" stroke-linejoin="round"/>
</mask>
<g mask="url(#mask0_4501_36637)">
<path d="M7.39258 7.39288H22.1783V22.1786H7.39258V7.39288Z" fill="#082C25"/>
</g>
<defs>
<linearGradient id="paint0_linear_4501_36637" x1="16.0589" y1="-39.5473" x2="10.104" y2="31.2261" gradientUnits="userSpaceOnUse">
<stop stop-color="#D1C2F9"/>
<stop offset="0.883614" stop-color="white"/>
<stop offset="1" stop-color="white" stop-opacity="0"/>
</linearGradient>
</defs>
</svg>
