<svg width="10" height="10" viewBox="0 0 10 10" fill="none" xmlns="http://www.w3.org/2000/svg">
<path d="M1.72591 0H3.24609C3.26261 0.000911009 3.27865 0.00583384 3.29283 0.0143421C3.30701 0.0228503 3.3189 0.0346875 3.32747 0.0488281L5.35384 3.43913H7.40218V0.102539C7.40186 0.0892583 7.40418 0.0760457 7.40901 0.0636717C7.41385 0.0512976 7.4211 0.0400095 7.43034 0.0304655C7.43958 0.0209215 7.45063 0.0133125 7.46284 0.00808193C7.47505 0.0028514 7.48818 0.000104044 7.50146 0L8.90771 0C8.93426 0 8.95972 0.010546 8.97849 0.0293179C8.99727 0.0480899 9.00781 0.0735501 9.00781 0.100098V3.43669H9.90299C9.92954 3.43669 9.955 3.44723 9.97377 3.466C9.99255 3.48478 10.0031 3.51024 10.0031 3.53678V4.43929C10.0031 4.46584 9.99255 4.4913 9.97377 4.51007C9.955 4.52884 9.92954 4.53939 9.90299 4.53939H9.00781V5.30518H9.90299C9.9294 5.30518 9.95474 5.31561 9.97349 5.33421C9.99224 5.3528 10.0029 5.37805 10.0031 5.40446V6.30534C10.0029 6.33175 9.99224 6.357 9.97349 6.37559C9.95474 6.39419 9.9294 6.40462 9.90299 6.40462H9.00781V9.90397C9.00781 9.93052 8.99727 9.95598 8.97849 9.97475C8.95972 9.99352 8.93426 10.0041 8.90771 10.0041H7.50146C7.48495 10.0032 7.46891 9.99824 7.45473 9.98973C7.44055 9.98122 7.42866 9.96938 7.42008 9.95524L5.35384 6.40462H3.34049V9.90397C3.33943 9.93024 3.32809 9.95503 3.3089 9.973C3.28972 9.99096 3.26423 10.0007 3.23796 10H1.72591C1.69936 10 1.6739 9.98946 1.65513 9.97068C1.63636 9.95191 1.62581 9.92645 1.62581 9.8999V6.40462H0.730632C0.704792 6.40378 0.68028 6.39298 0.662229 6.37447C0.644177 6.35596 0.633986 6.33119 0.633789 6.30534V5.40446C0.634004 5.37805 0.644644 5.3528 0.663393 5.33421C0.682142 5.31561 0.70748 5.30518 0.733887 5.30518H1.62907V4.53939H0.733887C0.720742 4.53939 0.707725 4.5368 0.695581 4.53177C0.683437 4.52674 0.672402 4.51937 0.663107 4.51007C0.644335 4.4913 0.633789 4.46584 0.633789 4.43929V3.53923C0.633789 3.51268 0.644335 3.48722 0.663107 3.46845C0.681879 3.44967 0.707339 3.43913 0.733887 3.43913H1.62907V0.102539C1.62841 0.0761264 1.63822 0.0505247 1.65636 0.0313163C1.6745 0.012108 1.6995 0.000851018 1.72591 0ZM3.34049 4.53939V5.30518H4.72396L4.36589 4.53939H3.34049ZM6.3304 5.30518H7.40218V4.53939H5.97884L6.3304 5.30518ZM7.40218 6.40462H6.97168L7.40218 7.29981V6.40462ZM3.34049 2.66602V3.43913H3.7124L3.34049 2.66602Z" fill="#082C25"/>
</svg>
