<svg width="6" height="6" viewBox="0 0 6 6" fill="none" xmlns="http://www.w3.org/2000/svg">
<path d="M1.55337 0.592529H2.35898C2.36773 0.593012 2.37623 0.595621 2.38375 0.60013C2.39126 0.604639 2.39757 0.610912 2.40211 0.618405L3.47597 2.41507H4.56147V0.646869C4.5613 0.639831 4.56253 0.632829 4.56509 0.626272C4.56766 0.619714 4.5715 0.613732 4.57639 0.608674C4.58129 0.603617 4.58715 0.599584 4.59362 0.596812C4.60009 0.59404 4.60705 0.592584 4.61409 0.592529H5.35932C5.37339 0.592529 5.38688 0.598118 5.39683 0.608066C5.40678 0.618014 5.41237 0.631507 5.41237 0.645575V2.41378H5.88676C5.90083 2.41378 5.91432 2.41937 5.92427 2.42931C5.93422 2.43926 5.93981 2.45275 5.93981 2.46682V2.9451C5.93981 2.95917 5.93422 2.97266 5.92427 2.98261C5.91432 2.99256 5.90083 2.99815 5.88676 2.99815H5.41237V3.40397H5.88676C5.90076 3.40397 5.91418 3.4095 5.92412 3.41935C5.93406 3.42921 5.93969 3.44259 5.93981 3.45659V3.934C5.93969 3.94799 5.93406 3.96138 5.92412 3.97123C5.91418 3.98109 5.90076 3.98662 5.88676 3.98662H5.41237V5.84107C5.41237 5.85514 5.40678 5.86863 5.39683 5.87858C5.38688 5.88853 5.37339 5.89412 5.35932 5.89412H4.61409C4.60534 5.89363 4.59684 5.89103 4.58932 5.88652C4.58181 5.88201 4.5755 5.87573 4.57096 5.86824L3.47597 3.98662H2.40901V5.84107C2.40845 5.85499 2.40243 5.86813 2.39227 5.87765C2.3821 5.88717 2.3686 5.89231 2.35467 5.89196H1.55337C1.5393 5.89196 1.52581 5.88637 1.51586 5.87642C1.50591 5.86648 1.50033 5.85298 1.50033 5.83891V3.98662H1.02593C1.01224 3.98617 0.999247 3.98044 0.989681 3.97064C0.980114 3.96083 0.974714 3.9477 0.974609 3.934V3.45659C0.974723 3.44259 0.980362 3.42921 0.990298 3.41935C1.00023 3.4095 1.01366 3.40397 1.02766 3.40397H1.50205V2.99815H1.02766C1.02069 2.99815 1.01379 2.99677 1.00736 2.99411C1.00092 2.99144 0.995072 2.98754 0.990146 2.98261C0.980198 2.97266 0.974609 2.95917 0.974609 2.9451V2.46812C0.974609 2.45405 0.980198 2.44056 0.990146 2.43061C1.00009 2.42066 1.01359 2.41507 1.02766 2.41507H1.50205V0.646869C1.5017 0.632872 1.5069 0.619304 1.51652 0.609125C1.52613 0.598946 1.53938 0.59298 1.55337 0.592529ZM2.40901 2.99815V3.40397H3.14217L2.95241 2.99815H2.40901ZM3.99349 3.40397H4.56147V2.99815H3.80718L3.99349 3.40397ZM4.56147 3.98662H4.33333L4.56147 4.46101V3.98662ZM2.40901 2.00537V2.41507H2.6061L2.40901 2.00537Z" fill="white"/>
</svg>
