<svg width="43" height="43" viewBox="0 0 43 43" fill="none" xmlns="http://www.w3.org/2000/svg">
<path fill-rule="evenodd" clip-rule="evenodd" d="M7.71777 7.25977C7.44163 7.25977 7.21777 7.48362 7.21777 7.75977V20.7598C7.21777 21.0359 7.44163 21.2598 7.71777 21.2598H18.7178C18.9939 21.2598 19.2178 21.0359 19.2178 20.7598V7.75977C19.2178 7.48362 18.9939 7.25977 18.7178 7.25977H7.71777ZM8.21777 20.2598V8.25977H18.2178V20.2598H8.21777Z" fill="#082C25" fill-opacity="0.2"/>
<path fill-rule="evenodd" clip-rule="evenodd" d="M7.21777 26.7598C7.21777 26.4836 7.44163 26.2598 7.71777 26.2598H18.7178C18.9939 26.2598 19.2178 26.4836 19.2178 26.7598V35.7598C19.2178 36.0359 18.9939 36.2598 18.7178 36.2598H7.71777C7.44163 36.2598 7.21777 36.0359 7.21777 35.7598V26.7598ZM8.21777 27.2598V35.2598H18.2178V27.2598H8.21777Z" fill="#082C25" fill-opacity="0.2"/>
<path fill-rule="evenodd" clip-rule="evenodd" d="M24.7178 7.25977C24.4416 7.25977 24.2178 7.48362 24.2178 7.75977V35.7598C24.2178 36.0359 24.4416 36.2598 24.7178 36.2598H35.7178C35.9939 36.2598 36.2178 36.0359 36.2178 35.7598V7.75977C36.2178 7.48362 35.9939 7.25977 35.7178 7.25977H24.7178ZM25.2178 35.2598V8.25977H35.2178V35.2598H25.2178Z" fill="#082C25" fill-opacity="0.2"/>
<path fill-rule="evenodd" clip-rule="evenodd" d="M1.71777 1.25977C1.44163 1.25977 1.21777 1.48362 1.21777 1.75977V41.7598C1.21777 42.0359 1.44163 42.2598 1.71777 42.2598H41.7178C41.9939 42.2598 42.2178 42.0359 42.2178 41.7598V1.75977C42.2178 1.48362 41.9939 1.25977 41.7178 1.25977H1.71777ZM2.21777 41.2598V2.25977H41.2178V41.2598H2.21777Z" fill="#082C25" fill-opacity="0.2"/>
<path fill-rule="evenodd" clip-rule="evenodd" d="M7.71777 7.25977C7.44163 7.25977 7.21777 7.48362 7.21777 7.75977V20.7598C7.21777 21.0359 7.44163 21.2598 7.71777 21.2598H18.7178C18.9939 21.2598 19.2178 21.0359 19.2178 20.7598V7.75977C19.2178 7.48362 18.9939 7.25977 18.7178 7.25977H7.71777ZM8.21777 20.2598V8.25977H18.2178V20.2598H8.21777Z" stroke="#030F0D" stroke-miterlimit="10" stroke-linecap="round" stroke-linejoin="round"/>
<path fill-rule="evenodd" clip-rule="evenodd" d="M7.21777 26.7598C7.21777 26.4836 7.44163 26.2598 7.71777 26.2598H18.7178C18.9939 26.2598 19.2178 26.4836 19.2178 26.7598V35.7598C19.2178 36.0359 18.9939 36.2598 18.7178 36.2598H7.71777C7.44163 36.2598 7.21777 36.0359 7.21777 35.7598V26.7598ZM8.21777 27.2598V35.2598H18.2178V27.2598H8.21777Z" stroke="#030F0D" stroke-miterlimit="10" stroke-linecap="round" stroke-linejoin="round"/>
<path fill-rule="evenodd" clip-rule="evenodd" d="M24.7178 7.25977C24.4416 7.25977 24.2178 7.48362 24.2178 7.75977V35.7598C24.2178 36.0359 24.4416 36.2598 24.7178 36.2598H35.7178C35.9939 36.2598 36.2178 36.0359 36.2178 35.7598V7.75977C36.2178 7.48362 35.9939 7.25977 35.7178 7.25977H24.7178ZM25.2178 35.2598V8.25977H35.2178V35.2598H25.2178Z" stroke="#030F0D" stroke-miterlimit="10" stroke-linecap="round" stroke-linejoin="round"/>
<path fill-rule="evenodd" clip-rule="evenodd" d="M1.71777 1.25977C1.44163 1.25977 1.21777 1.48362 1.21777 1.75977V41.7598C1.21777 42.0359 1.44163 42.2598 1.71777 42.2598H41.7178C41.9939 42.2598 42.2178 42.0359 42.2178 41.7598V1.75977C42.2178 1.48362 41.9939 1.25977 41.7178 1.25977H1.71777ZM2.21777 41.2598V2.25977H41.2178V41.2598H2.21777Z" stroke="#030F0D" stroke-miterlimit="10" stroke-linecap="round" stroke-linejoin="round"/>
</svg>
