<svg width="11" height="12" viewBox="0 0 11 12" fill="none" xmlns="http://www.w3.org/2000/svg">
<path d="M1.95822 11.423H9.44508C9.72874 11.423 10.0008 11.3104 10.2014 11.1098C10.4019 10.9092 10.5146 10.6372 10.5146 10.3535V4.47097C10.5146 4.32913 10.4583 4.19311 10.358 4.09282C10.2577 3.99253 10.1217 3.93619 9.97986 3.93619H8.37553V3.52067C8.37553 2.12491 7.35785 0.876204 5.96904 0.740906C5.5973 0.70396 5.22195 0.745238 4.86713 0.862086C4.5123 0.978934 4.18587 1.16876 3.90883 1.41936C3.63178 1.66996 3.41026 1.97578 3.25852 2.31714C3.10678 2.6585 3.02818 3.02785 3.02777 3.40141V3.93619H1.42345C1.28162 3.93619 1.14559 3.99253 1.0453 4.09282C0.945014 4.19311 0.888672 4.32913 0.888672 4.47097V10.3535C0.888672 10.6372 1.00136 10.9092 1.20194 11.1098C1.40252 11.3104 1.67456 11.423 1.95822 11.423ZM8.37553 5.00574V6.07529H7.30598V5.00574H8.37553ZM4.09732 3.40141C4.09732 2.5169 4.81713 1.79709 5.70165 1.79709C6.58617 1.79709 7.30598 2.5169 7.30598 3.40141V3.93619H4.09732V3.40141ZM3.02777 5.00574H4.09732V6.07529H3.02777V5.00574Z" fill="#082C25"/>
</svg>
