<svg width="48" height="48" viewBox="0 0 48 48" fill="none" xmlns="http://www.w3.org/2000/svg">
<circle cx="24" cy="24" r="24" fill="#F1FC79" fill-opacity="0.4"/>
<path d="M18.1663 12.3333H16.9997C13.4997 12.3333 12.333 14.4217 12.333 17V18.1667V34.5C12.333 35.4683 13.4297 36.0167 14.1997 35.4333L16.1947 33.94C16.6613 33.59 17.3147 33.6367 17.7347 34.0567L19.6713 36.005C20.1263 36.46 20.873 36.46 21.328 36.005L23.288 34.045C23.6963 33.6367 24.3497 33.59 24.8047 33.94L26.7997 35.4333C27.5697 36.005 28.6663 35.4567 28.6663 34.5V14.6667C28.6663 13.3833 29.7163 12.3333 30.9997 12.3333H18.1663ZM16.9647 26.345C16.323 26.345 15.798 25.82 15.798 25.1783C15.798 24.5367 16.323 24.0117 16.9647 24.0117C17.6063 24.0117 18.1313 24.5367 18.1313 25.1783C18.1313 25.82 17.6063 26.345 16.9647 26.345ZM16.9647 21.6783C16.323 21.6783 15.798 21.1533 15.798 20.5117C15.798 19.87 16.323 19.345 16.9647 19.345C17.6063 19.345 18.1313 19.87 18.1313 20.5117C18.1313 21.1533 17.6063 21.6783 16.9647 21.6783ZM23.9997 26.0533H20.4997C20.0213 26.0533 19.6247 25.6567 19.6247 25.1783C19.6247 24.7 20.0213 24.3033 20.4997 24.3033H23.9997C24.478 24.3033 24.8747 24.7 24.8747 25.1783C24.8747 25.6567 24.478 26.0533 23.9997 26.0533ZM23.9997 21.3867H20.4997C20.0213 21.3867 19.6247 20.99 19.6247 20.5117C19.6247 20.0333 20.0213 19.6367 20.4997 19.6367H23.9997C24.478 19.6367 24.8747 20.0333 24.8747 20.5117C24.8747 20.99 24.478 21.3867 23.9997 21.3867Z" fill="#373C18"/>
<path d="M31.012 12.3333V14.0833C31.782 14.0833 32.517 14.3983 33.0537 14.9233C33.6137 15.495 33.917 16.23 33.917 17V19.8233C33.917 20.6867 33.532 21.0833 32.657 21.0833H30.417V14.6783C30.417 14.3517 30.6853 14.0833 31.012 14.0833V12.3333ZM31.012 12.3333C29.717 12.3333 28.667 13.3833 28.667 14.6783V22.8333H32.657C34.5003 22.8333 35.667 21.6667 35.667 19.8233V17C35.667 15.7167 35.142 14.55 34.302 13.6983C33.4503 12.8583 32.2953 12.345 31.012 12.3333C31.0237 12.3333 31.012 12.3333 31.012 12.3333Z" fill="#373C18"/>
</svg>
