<svg width="48" height="48" viewBox="0 0 48 48" fill="none" xmlns="http://www.w3.org/2000/svg">
<circle cx="24" cy="24" r="24" fill="url(#paint0_linear_2937_36340)"/>
<path fill-rule="evenodd" clip-rule="evenodd" d="M28.688 12H18.512C15.2 12 14 13.2 14 16.572V31.428C14 34.8 15.2 36 18.512 36H28.676C32 36 33.2 34.8 33.2 31.428V16.572C33.2 13.2 32 12 28.688 12ZM26.2182 33.54H20.9818C20.4451 33.54 20 33.2136 20 32.82C20 32.4264 20.4451 32.1 20.9818 32.1H26.2182C26.7549 32.1 27.2 32.4264 27.2 32.82C27.2 33.2136 26.7549 33.54 26.2182 33.54ZM21.9202 24.4804L23.0303 23.3704C23.2703 23.1304 23.2643 22.7463 23.0243 22.5123C22.9943 22.4823 22.9627 22.4523 22.9312 22.4223C22.8997 22.3923 22.8682 22.3623 22.8382 22.3323C22.5262 22.0143 22.2382 21.6963 21.9682 21.3843C21.7042 21.0723 21.5182 20.8142 21.4102 20.6162C21.4037 20.5968 21.3954 20.5773 21.3864 20.5559C21.3787 20.5378 21.3704 20.5182 21.3622 20.4962C21.3502 20.4482 21.3442 20.4062 21.3442 20.3582C21.3442 20.2622 21.3742 20.1842 21.4402 20.1182L21.8962 19.6442C22.0402 19.5002 22.1542 19.3562 22.2322 19.2182C22.3162 19.0802 22.3582 18.9362 22.3582 18.7922C22.3582 18.6781 22.3282 18.5521 22.2742 18.4261C22.2202 18.2941 22.1422 18.1561 22.0342 18.0061L20.6421 16.044C20.5341 15.888 20.3961 15.78 20.2401 15.708C20.0901 15.636 19.9221 15.6 19.7541 15.6C19.3101 15.6 18.8901 15.786 18.506 16.164C18.188 16.464 17.96 16.8001 17.816 17.1661C17.672 17.5261 17.6 17.9161 17.6 18.3241C17.6 18.9482 17.744 19.6022 18.026 20.2862C18.314 20.9643 18.7101 21.6483 19.2021 22.3323C19.7001 23.0163 20.2581 23.6704 20.8762 24.2944C20.9092 24.3274 20.9421 24.3589 20.9751 24.3904C21.0082 24.4219 21.0412 24.4534 21.0742 24.4864C21.3142 24.7144 21.6862 24.7144 21.9202 24.4804ZM29.4923 25.9079C29.5523 25.7399 29.5823 25.5659 29.5823 25.3979C29.5823 25.2299 29.5463 25.0799 29.4863 24.9299C29.4203 24.7799 29.3123 24.6539 29.1563 24.5459L27.1702 23.1358C27.0202 23.0338 26.8822 22.9558 26.7502 22.9018C26.6182 22.8478 26.4982 22.8238 26.3842 22.8238C26.2342 22.8238 26.0962 22.8658 25.9582 22.9498C25.8202 23.0218 25.6761 23.1358 25.5261 23.2858L25.0701 23.7358C25.0041 23.8018 24.9261 23.8378 24.8241 23.8378C24.7701 23.8378 24.7221 23.8318 24.6741 23.8138C24.6548 23.8056 24.6368 23.7973 24.6201 23.7896C24.6004 23.7806 24.5823 23.7723 24.5661 23.7658C24.4401 23.6998 24.2901 23.6038 24.1221 23.4778L22.16 25.4399C22.382 25.6259 22.616 25.7999 22.85 25.9739C23.534 26.4719 24.2241 26.868 24.9141 27.162C25.6041 27.456 26.2582 27.6 26.8702 27.6C27.2842 27.6 27.6682 27.522 28.0223 27.378C28.0253 27.378 28.0283 27.3765 28.0313 27.375C28.0343 27.3735 28.0373 27.372 28.0403 27.372C28.4063 27.222 28.7303 26.988 29.0243 26.664C29.1983 26.4719 29.3303 26.2679 29.4323 26.0519C29.4563 26.0039 29.4743 25.9559 29.4923 25.9079Z" fill="#082C25"/>
<defs>
<linearGradient id="paint0_linear_2937_36340" x1="-19.6829" y1="-43.6552" x2="70.396" y2="-23.4455" gradientUnits="userSpaceOnUse">
<stop stop-color="#B6F485"/>
<stop offset="1" stop-color="#E9FDF2"/>
</linearGradient>
</defs>
</svg>
