<svg width="166" height="49" viewBox="0 0 166 49" fill="none" xmlns="http://www.w3.org/2000/svg">
<g clip-path="url(#clip0_2785_6092)">
<path fill-rule="evenodd" clip-rule="evenodd" d="M159.72 48.6017H7.05231C5.43707 48.6022 3.8874 47.9629 2.74235 46.8236C1.5973 45.6844 0.950113 44.138 0.942383 42.5228L0.942383 6.07521C0.949153 4.46004 1.59615 2.91346 2.74152 1.77461C3.88688 0.635752 5.43712 -0.00242593 7.05231 6.93047e-06H159.72C161.335 -0.00194353 162.885 0.636391 164.03 1.77514C165.175 2.91389 165.823 4.46019 165.83 6.07521V42.5228C165.822 44.1379 165.174 45.684 164.029 46.8231C162.884 47.9622 161.335 48.6017 159.72 48.6017Z" fill="black"/>
<path fill-rule="evenodd" clip-rule="evenodd" d="M159.72 0.972033C161.076 0.971529 162.378 1.50803 163.34 2.46429C164.302 3.42054 164.846 4.71876 164.854 6.07521V42.5228C164.853 43.1951 164.718 43.8605 164.459 44.4809C164.2 45.1013 163.822 45.6646 163.345 46.1385C162.868 46.6125 162.302 46.9878 161.68 47.243C161.058 47.4982 160.392 47.6284 159.72 47.626H7.05231C5.69552 47.627 4.39355 47.0907 3.43108 46.1344C2.46862 45.1781 1.92397 43.8796 1.91624 42.5228V6.07521C1.91792 5.40275 2.05215 4.73722 2.31126 4.11669C2.57037 3.49616 2.94927 2.93279 3.4263 2.45882C3.90332 1.98485 4.46911 1.60958 5.09129 1.35446C5.71348 1.09934 6.37985 0.969389 7.05231 0.972033H159.72ZM159.72 3.00833e-07H7.05231C5.4377 -0.000506084 3.88858 0.638294 2.74364 1.77673C1.59869 2.91517 0.951076 4.46063 0.942383 6.07521L0.942383 42.5228C0.948188 44.1386 1.59476 45.6861 2.74023 46.8258C3.8857 47.9654 5.43649 48.6041 7.05231 48.6017H159.72C161.335 48.6036 162.885 47.9653 164.03 46.8265C165.175 45.6878 165.823 44.1415 165.83 42.5264V6.07521C165.821 4.46078 165.173 2.9156 164.028 1.77726C162.883 0.638929 161.334 -2.57592e-05 159.72 3.00833e-07Z" fill="#A6A6A6"/>
<path d="M87.8035 16.077C87.2889 16.0891 86.7776 15.9938 86.302 15.7972C85.8263 15.6005 85.3968 15.3069 85.0409 14.9351C84.6792 14.5676 84.3942 14.1318 84.2025 13.6531C84.0109 13.1745 83.9164 12.6624 83.9246 12.1469C83.912 11.6313 84.0043 11.1185 84.1963 10.6397C84.3882 10.161 84.6756 9.72638 85.0409 9.36228C85.3962 8.99011 85.8252 8.69628 86.3006 8.49963C86.7761 8.30297 87.2873 8.20784 87.8017 8.22033C88.3159 8.21059 88.8267 8.30699 89.3021 8.50347C89.7774 8.69995 90.207 8.99229 90.5642 9.36228C91.2808 10.1122 91.6808 11.1096 91.6808 12.1469C91.6808 13.1841 91.2808 14.1814 90.5642 14.9314C90.2101 15.3052 89.7813 15.6004 89.3056 15.7978C88.83 15.9951 88.3182 16.0903 87.8035 16.077ZM55.0412 16.077C54.5266 16.0848 54.0158 15.989 53.539 15.7954C53.0622 15.6017 52.6293 15.3141 52.2659 14.9497C51.709 14.4018 51.328 13.7003 51.1719 12.9349C51.0158 12.1694 51.0918 11.3748 51.3898 10.6527C51.6878 9.93053 52.1944 9.31366 52.8449 8.88102C53.4954 8.44839 54.26 8.21965 55.0412 8.22401C55.5743 8.22338 56.1018 8.33285 56.5906 8.54557C57.0444 8.73031 57.4487 9.01878 57.7709 9.38788L57.8441 9.47559L57.022 10.2814L56.9361 10.1808C56.7029 9.90633 56.4092 9.68949 56.0783 9.54718C55.7474 9.40487 55.3881 9.34098 55.0284 9.3605C54.6757 9.35592 54.3256 9.42209 53.9989 9.55515C53.6722 9.68822 53.3755 9.88544 53.1264 10.1352C52.6121 10.6813 52.3257 11.4031 52.3257 12.1533C52.3257 12.9034 52.6121 13.6252 53.1264 14.1713C53.6446 14.6691 54.3355 14.9471 55.0541 14.9471C55.7727 14.9471 56.4633 14.6691 56.9816 14.1713C57.3051 13.8256 57.5022 13.3806 57.5407 12.9088H54.9042V11.7759H58.6718L58.6863 11.8783C58.7177 12.0668 58.7361 12.2573 58.7411 12.4484C58.7626 12.9093 58.6903 13.3698 58.5286 13.8019C58.3668 14.2341 58.1189 14.6289 57.8001 14.9624C57.4435 15.3304 57.0138 15.6197 56.5386 15.8117C56.0635 16.0036 55.5533 16.094 55.0412 16.077ZM98.6037 15.9162H97.4416L93.8768 10.2302L93.908 11.2534V15.9126H92.746V8.38482H94.0724L94.109 8.44141L97.4543 13.7986L97.4233 12.7772V8.39212H98.5983L98.6037 15.9162ZM79.0753 15.9162H77.8986V9.52125H75.8578V8.38844H81.1143V9.52125H79.0771L79.0753 15.9162ZM74.8985 15.9162H73.7237V8.38482H74.8985V15.9162ZM68.3008 15.9162H67.1278V9.52125H65.0868V8.38844H70.3434V9.52125H68.297L68.3008 15.9162ZM64.3432 15.9034H59.8412V8.38482H64.3432V9.51763H61.0177V11.5841H64.018V12.706H61.0177V14.7724H64.3432V15.9034ZM85.9034 14.1549C86.1501 14.4087 86.446 14.6095 86.773 14.7449C87.1001 14.8803 87.4513 14.9475 87.8053 14.9424C88.1598 14.9516 88.5123 14.8863 88.8399 14.7506C89.1676 14.615 89.4631 14.412 89.7073 14.1549C90.2086 13.6055 90.4864 12.8887 90.4864 12.145C90.4864 11.4014 90.2086 10.6845 89.7073 10.1352C89.4605 9.88151 89.1645 9.68085 88.8375 9.54545C88.5104 9.41005 88.1592 9.34276 87.8053 9.34767C87.4513 9.33827 87.0995 9.40352 86.7724 9.53921C86.4453 9.67489 86.1504 9.87796 85.907 10.1352C85.4069 10.6851 85.1297 11.4017 85.1297 12.145C85.1297 12.8883 85.4069 13.6049 85.907 14.1549H85.9034Z" fill="white"/>
<path fill-rule="evenodd" clip-rule="evenodd" d="M83.8156 26.4336C82.7942 26.4375 81.7967 26.7441 80.9494 27.3144C80.102 27.8848 79.4426 28.6934 79.0544 29.6383C78.6663 30.5831 78.5668 31.6218 78.7685 32.6232C78.9702 33.6245 79.4642 34.5436 80.1879 35.2645C80.9116 35.9854 81.8326 36.4758 82.8347 36.6736C83.8368 36.8714 84.8752 36.7679 85.8185 36.376C86.7618 35.9842 87.5679 35.3218 88.135 34.4722C88.7021 33.6226 89.0046 32.6239 89.0046 31.6025C89.0153 30.919 88.8883 30.2404 88.631 29.6072C88.3738 28.9739 87.9916 28.3989 87.5074 27.9165C87.0231 27.4341 86.4468 27.0542 85.8125 26.7994C85.1782 26.5447 84.499 26.4202 83.8156 26.4336ZM83.8156 34.7232C83.1867 34.7669 82.5591 34.6202 82.0146 34.3023C81.4701 33.9845 81.0341 33.5102 80.7629 32.941C80.4917 32.3719 80.398 31.7343 80.4941 31.1112C80.5902 30.4881 80.8715 29.9083 81.3015 29.4474C81.7316 28.9864 82.2905 28.6655 82.9054 28.5264C83.5203 28.3874 84.1629 28.4366 84.7495 28.6677C85.3361 28.8988 85.8395 29.3012 86.1943 29.8223C86.5492 30.3434 86.7389 30.9593 86.739 31.5898C86.7579 31.9887 86.6968 32.3873 86.5592 32.7623C86.4216 33.1372 86.2103 33.4807 85.9378 33.7727C85.6654 34.0648 85.3372 34.2994 84.9728 34.4626C84.6083 34.6258 84.2149 34.7144 83.8156 34.7232ZM72.4875 26.4336C71.4661 26.4379 70.4688 26.7447 69.6217 27.3153C68.7746 27.8859 68.1155 28.6947 67.7277 29.6396C67.3398 30.5845 67.2405 31.6231 67.4424 32.6243C67.6443 33.6255 68.1383 34.5445 68.862 35.2652C69.5858 35.9859 70.507 36.476 71.509 36.6737C72.5111 36.8714 73.5492 36.7677 74.4924 36.3758C75.4356 35.984 76.2417 35.3215 76.8087 34.472C77.3757 33.6224 77.6783 32.6239 77.6783 31.6025C77.689 30.9193 77.5619 30.2411 77.3049 29.6081C77.0479 28.975 76.6662 28.4002 76.1824 27.9179C75.6985 27.4355 75.1225 27.0556 74.4886 26.8006C73.8548 26.5456 73.176 26.4207 72.4929 26.4336H72.4875ZM72.4875 34.7232C71.8586 34.7669 71.2309 34.6202 70.6865 34.3023C70.142 33.9845 69.7058 33.5102 69.4346 32.941C69.1634 32.3719 69.0697 31.7343 69.1658 31.1112C69.2619 30.4881 69.5434 29.9083 69.9734 29.4474C70.4035 28.9864 70.9624 28.6655 71.5773 28.5264C72.1922 28.3874 72.8348 28.4366 73.4214 28.6677C74.0079 28.8988 74.5114 29.3012 74.8662 29.8223C75.221 30.3434 75.4108 30.9593 75.4109 31.5898C75.4297 31.9882 75.3688 32.3865 75.2316 32.761C75.0943 33.1356 74.8834 33.4789 74.6115 33.7708C74.3397 34.0628 74.0123 34.2975 73.6484 34.461C73.2846 34.6246 72.8917 34.7137 72.4929 34.7232H72.4875ZM59.0178 28.0031V30.1957H64.2746C64.1963 31.2204 63.7776 32.1896 63.0851 32.9491C62.5591 33.4858 61.9262 33.9061 61.2274 34.1828C60.5287 34.4595 59.7796 34.5863 59.0287 34.5552C57.4819 34.5552 55.9985 33.9407 54.9047 32.8469C53.811 31.7532 53.1967 30.2697 53.1967 28.7229C53.1967 27.1761 53.811 25.6927 54.9047 24.599C55.9985 23.5052 57.4819 22.8908 59.0287 22.8908C60.5029 22.8727 61.9251 23.4351 62.9881 24.4567L64.5413 22.9054C63.8184 22.1885 62.9594 21.6233 62.015 21.243C61.0705 20.8627 60.0597 20.675 59.0417 20.6909C57.9782 20.6748 56.9223 20.8705 55.9352 21.2663C54.9481 21.6622 54.0494 22.2503 53.2917 22.9966C52.534 23.743 51.9324 24.6325 51.5217 25.6136C51.111 26.5946 50.8994 27.6476 50.8994 28.7111C50.8994 29.7746 51.111 30.8275 51.5217 31.8086C51.9324 32.7896 52.534 33.6791 53.2917 34.4255C54.0494 35.1718 54.9481 35.7601 55.9352 36.1559C56.9223 36.5518 57.9782 36.7473 59.0417 36.7312C60.083 36.7742 61.1215 36.5955 62.0886 36.2068C63.0556 35.8181 63.929 35.2284 64.6508 34.4766C65.9312 33.0814 66.6151 31.2407 66.5565 29.3479C66.5625 28.8906 66.5222 28.4339 66.436 27.9848H59.016L59.0178 28.0031ZM114.13 29.706C113.818 28.7691 113.226 27.9509 112.433 27.3625C111.64 26.7741 110.686 26.444 109.699 26.4172C109.034 26.421 108.378 26.5594 107.768 26.8242C107.159 27.089 106.61 27.4747 106.154 27.9579C105.698 28.4411 105.345 29.0118 105.115 29.6354C104.886 30.259 104.786 30.9226 104.82 31.5861C104.805 32.2663 104.927 32.9426 105.179 33.5745C105.432 34.2063 105.809 34.7809 106.289 35.2635C106.768 35.7462 107.34 36.127 107.97 36.3833C108.601 36.6396 109.276 36.766 109.956 36.755C110.809 36.7602 111.649 36.5534 112.401 36.1531C113.154 35.7528 113.795 35.1716 114.267 34.4619L112.511 33.2872C112.248 33.7259 111.875 34.0885 111.43 34.3394C110.984 34.5902 110.481 34.7206 109.969 34.7178C109.442 34.7376 108.92 34.599 108.472 34.32C108.024 34.0409 107.67 33.6341 107.455 33.1519L114.374 30.2888L114.131 29.7151L114.13 29.706ZM107.075 31.4326C107.052 31.0568 107.103 30.68 107.227 30.3243C107.351 29.9686 107.544 29.6411 107.795 29.3608C108.047 29.0806 108.351 28.8532 108.692 28.6919C109.032 28.5307 109.401 28.4387 109.777 28.4215C110.17 28.3945 110.562 28.4843 110.903 28.6793C111.245 28.8744 111.521 29.166 111.698 29.5177L107.075 31.4326ZM101.455 36.4407H103.726V21.2555H101.455V36.4407ZM97.7239 27.5718H97.6416C97.2956 27.1949 96.8729 26.8965 96.4021 26.6964C95.9313 26.4963 95.4232 26.3992 94.9118 26.4117C93.5797 26.4677 92.3208 27.0362 91.398 27.9986C90.4753 28.961 89.9601 30.2428 89.9601 31.576C89.9601 32.9093 90.4753 34.191 91.398 35.1533C92.3208 36.1157 93.5797 36.6843 94.9118 36.7404C95.4244 36.7517 95.9336 36.6527 96.4046 36.45C96.8756 36.2473 97.2974 35.9456 97.6416 35.5655H97.7239V36.3073C97.7239 38.2806 96.6677 39.344 94.9667 39.344C94.3999 39.3314 93.8495 39.1511 93.3851 38.8259C92.9207 38.5007 92.5632 38.0452 92.3576 37.5169L90.3823 38.341C90.7563 39.2472 91.3918 40.0214 92.2077 40.5648C93.0235 41.1083 93.9826 41.3963 94.9629 41.3923C97.6268 41.3923 99.8833 39.8264 99.8833 36.0059V26.7241H97.7348V27.5755L97.7239 27.5718ZM95.1145 34.7123C94.3292 34.6465 93.5974 34.2881 93.0639 33.7081C92.5304 33.128 92.2342 32.3687 92.2342 31.5806C92.2342 30.7925 92.5304 30.0332 93.0639 29.4532C93.5974 28.8731 94.3292 28.5147 95.1145 28.4489C95.5043 28.4677 95.8865 28.5647 96.238 28.7343C96.5895 28.9039 96.9032 29.1425 97.1605 29.436C97.4178 29.7294 97.6135 30.0717 97.7357 30.4423C97.8579 30.813 97.9041 31.2045 97.8717 31.5934C97.9073 31.9827 97.863 32.375 97.7415 32.7465C97.62 33.1181 97.4238 33.4608 97.1651 33.7539C96.9065 34.0469 96.5909 34.2841 96.2373 34.4508C95.8837 34.6175 95.4998 34.7102 95.1092 34.7232L95.1145 34.7123ZM124.769 21.2537H119.337V36.4389H121.608V30.6889H124.771C125.412 30.7246 126.055 30.6291 126.658 30.4082C127.261 30.1873 127.813 29.8456 128.28 29.404C128.747 28.9624 129.119 28.4303 129.373 27.84C129.627 27.2498 129.758 26.6139 129.758 25.9713C129.758 25.3287 129.627 24.6928 129.373 24.1026C129.119 23.5124 128.747 22.9802 128.28 22.5386C127.813 22.0971 127.261 21.7553 126.658 21.5344C126.055 21.3135 125.411 21.218 124.769 21.2537ZM124.837 28.5622H121.603V23.3512H124.833C125.175 23.3512 125.514 23.4186 125.83 23.5496C126.146 23.6805 126.433 23.8723 126.675 24.1143C126.917 24.3562 127.109 24.6435 127.24 24.9596C127.371 25.2757 127.438 25.6145 127.438 25.9567C127.438 26.2989 127.371 26.6377 127.24 26.9538C127.109 27.2699 126.917 27.5571 126.675 27.799C126.433 28.0409 126.146 28.2329 125.83 28.3638C125.514 28.4948 125.175 28.5622 124.833 28.5622H124.837ZM138.865 26.3897C138.037 26.3419 137.213 26.5357 136.493 26.9477C135.772 27.3596 135.188 27.972 134.809 28.7102L136.819 29.5469C137.018 29.1801 137.32 28.8791 137.687 28.68C138.054 28.4809 138.471 28.3924 138.887 28.4252C139.464 28.369 140.039 28.5433 140.487 28.9099C140.936 29.2766 141.221 29.8058 141.281 30.382V30.5428C140.551 30.1606 139.739 29.9612 138.915 29.9618C136.74 29.9618 134.529 31.1494 134.529 33.3766C134.55 33.8465 134.665 34.3074 134.867 34.732C135.07 35.1566 135.355 35.5363 135.707 35.8484C136.058 36.1606 136.469 36.3991 136.915 36.5495C137.36 36.6998 137.832 36.7592 138.301 36.724C138.871 36.7573 139.44 36.6373 139.948 36.3764C140.457 36.1155 140.886 35.7232 141.191 35.2403H141.273V36.4152H143.466V30.5976C143.473 30.0097 143.356 29.427 143.121 28.8878C142.887 28.3485 142.541 27.865 142.106 27.469C141.672 27.0731 141.158 26.7737 140.6 26.5905C140.041 26.4073 139.45 26.3444 138.865 26.4061V26.3897ZM138.58 34.7068C137.837 34.7068 136.797 34.3414 136.797 33.4095C136.797 32.2347 138.096 31.7889 139.203 31.7889C139.926 31.7666 140.642 31.9435 141.272 32.3005C141.194 32.9625 140.878 33.5737 140.383 34.0196C139.888 34.4656 139.247 34.7157 138.58 34.7232V34.7068ZM151.463 26.7149L148.854 33.2926H148.772L146.07 26.7149H143.625L147.681 35.9218L145.37 41.0378H147.736L153.976 26.7131L151.463 26.7149ZM131.012 36.4353H133.285V21.25H131.012V36.4353Z" fill="white"/>
<path fill-rule="evenodd" clip-rule="evenodd" d="M13.6263 9.15363C13.2332 9.63563 13.0373 10.2487 13.0781 10.8693V37.7281C13.0342 38.3472 13.2379 38.9584 13.6446 39.4273L13.7377 39.5095L28.8079 24.4577V24.1215L13.7267 9.06592L13.6263 9.15363Z" fill="url(#paint0_linear_2785_6092)"/>
<path fill-rule="evenodd" clip-rule="evenodd" d="M33.8234 29.4957L28.7969 24.4748V24.124L33.8234 19.103L33.933 19.1688L39.8784 22.5435C40.2492 22.6635 40.5724 22.8979 40.8017 23.2131C41.031 23.5282 41.1545 23.9079 41.1545 24.2976C41.1545 24.6873 41.031 25.067 40.8017 25.3821C40.5724 25.6973 40.2492 25.9316 39.8784 26.0516L33.933 29.4264L33.8234 29.4957Z" fill="url(#paint1_linear_2785_6092)"/>
<path fill-rule="evenodd" clip-rule="evenodd" d="M33.9332 29.4276L28.799 24.2988L13.6338 39.4439C13.9804 39.748 14.4217 39.9224 14.8825 39.9374C15.3433 39.9524 15.7951 39.807 16.1607 39.5261L33.9332 29.4276Z" fill="url(#paint2_linear_2785_6092)"/>
<path fill-rule="evenodd" clip-rule="evenodd" d="M33.9332 19.1697L16.1607 9.08576C15.7965 8.80148 15.3441 8.65399 14.8824 8.66901C14.4206 8.68404 13.9787 8.8606 13.6338 9.16795L28.799 24.2984L33.9332 19.1697Z" fill="url(#paint3_linear_2785_6092)"/>
<path opacity="0.2" fill-rule="evenodd" clip-rule="evenodd" d="M33.8236 29.3179L16.1736 39.3342C15.8253 39.6017 15.3989 39.7478 14.9597 39.7502C14.5206 39.7525 14.0927 39.6109 13.7416 39.347L13.6484 39.442L13.7416 39.5242C14.0927 39.7881 14.5206 39.9297 14.9597 39.9274C15.3989 39.925 15.8253 39.7789 16.1736 39.5114L33.946 29.4275L33.8236 29.3179Z" fill="black"/>
<path opacity="0.12" fill-rule="evenodd" clip-rule="evenodd" d="M39.8784 25.8772L33.8086 29.3194L33.9183 29.4291L39.8636 26.0544C40.2146 25.9036 40.5185 25.6613 40.7435 25.3527C40.9686 25.0441 41.1066 24.6805 41.1428 24.3003C41.074 24.6453 40.923 24.9686 40.7029 25.2431C40.4829 25.5175 40.2001 25.735 39.8784 25.8772Z" fill="black"/>
<path opacity="0.25" fill-rule="evenodd" clip-rule="evenodd" d="M16.1605 9.26142L39.8785 22.72C40.2013 22.8633 40.4856 23.081 40.7079 23.3554C40.9302 23.6299 41.0843 23.9531 41.1574 24.2987C41.1212 23.9184 40.9834 23.555 40.7584 23.2464C40.5333 22.9377 40.2294 22.6954 39.8785 22.5446L16.1605 9.086C14.4594 8.11396 13.0781 8.92522 13.0781 10.8675V11.0501C13.0781 9.09875 14.4576 8.29852 16.1605 9.26142Z" fill="white"/>
</g>
<defs>
<linearGradient id="paint0_linear_2785_6092" x1="51.9708" y1="40.5751" x2="50.1325" y2="40.3182" gradientUnits="userSpaceOnUse">
<stop stop-color="#00A0FF"/>
<stop offset="0.007" stop-color="#00A1FF"/>
<stop offset="0.26" stop-color="#00BEFF"/>
<stop offset="0.512" stop-color="#00D2FF"/>
<stop offset="0.76" stop-color="#00DFFF"/>
<stop offset="1" stop-color="#00E3FF"/>
</linearGradient>
<linearGradient id="paint1_linear_2785_6092" x1="52.8943" y1="38.6309" x2="49.6813" y2="38.6309" gradientUnits="userSpaceOnUse">
<stop stop-color="#FFE000"/>
<stop offset="0.409" stop-color="#FFBD00"/>
<stop offset="0.775" stop-color="#FFA500"/>
<stop offset="1" stop-color="#FF9C00"/>
</linearGradient>
<linearGradient id="paint2_linear_2785_6092" x1="52.7305" y1="39.0939" x2="51.5037" y2="36.4167" gradientUnits="userSpaceOnUse">
<stop stop-color="#FF3A44"/>
<stop offset="1" stop-color="#C31162"/>
</linearGradient>
<linearGradient id="paint3_linear_2785_6092" x1="51.3096" y1="41.3825" x2="51.8631" y2="40.1902" gradientUnits="userSpaceOnUse">
<stop stop-color="#32A071"/>
<stop offset="0.068" stop-color="#2DA771"/>
<stop offset="0.476" stop-color="#15CF74"/>
<stop offset="0.801" stop-color="#06E775"/>
<stop offset="1" stop-color="#00F076"/>
</linearGradient>
<clipPath id="clip0_2785_6092">
<rect width="164.886" height="48.598" fill="white" transform="translate(0.942383)"/>
</clipPath>
</defs>
</svg>
