<svg width="14" height="14" viewBox="0 0 14 14" fill="none" xmlns="http://www.w3.org/2000/svg">
<path d="M12.1737 3.48695L10.571 1.88423C10.5214 1.83447 10.4625 1.79501 10.3976 1.76812C10.3327 1.74123 10.2631 1.72744 10.1929 1.72754H3.77558C3.70534 1.72744 3.63577 1.74123 3.57088 1.76812C3.506 1.79501 3.44707 1.83447 3.39749 1.88423L1.79477 3.48695C1.74455 3.53649 1.70468 3.59552 1.67751 3.66062C1.65033 3.72571 1.63638 3.79557 1.63648 3.86611V10.8187C1.63648 11.1024 1.74916 11.3744 1.94974 11.575C2.15032 11.7756 2.42236 11.8883 2.70603 11.8883H11.2624C11.5461 11.8883 11.8181 11.7756 12.0187 11.575C12.2193 11.3744 12.332 11.1024 12.332 10.8187V3.86611C12.3321 3.79557 12.3181 3.72571 12.291 3.66062C12.2638 3.59552 12.2239 3.53649 12.1737 3.48695ZM3.99697 2.79709H9.97149L10.5063 3.33187H3.4622L3.99697 2.79709ZM9.65811 7.61007V8.14485H4.31035V6.00574H5.3799V7.07529H8.58856V6.00574H9.65811V7.61007Z" fill="#082C25"/>
</svg>
