<svg width="42" height="42" viewBox="0 0 42 42" fill="none" xmlns="http://www.w3.org/2000/svg">
<path d="M8.21777 8.65736C8.21777 8.38454 8.44163 8.16338 8.71777 8.16338H32.7178C32.9939 8.16338 33.2178 8.38454 33.2178 8.65736C33.2178 8.93017 32.9939 9.15133 32.7178 9.15133H8.71777C8.44163 9.15133 8.21777 8.93017 8.21777 8.65736Z" fill="#030F0D"/>
<path d="M8.71777 16.067C8.44163 16.067 8.21777 16.2882 8.21777 16.561C8.21777 16.8338 8.44163 17.0549 8.71777 17.0549H32.7178C32.9939 17.0549 33.2178 16.8338 33.2178 16.561C33.2178 16.2882 32.9939 16.067 32.7178 16.067H8.71777Z" fill="#030F0D"/>
<path fill-rule="evenodd" clip-rule="evenodd" d="M2.84559 40.3639C3.6583 40.9284 4.64887 41.2598 5.71777 41.2598H35.7178C36.7867 41.2598 37.7772 40.9284 38.59 40.3639C40.1406 39.6621 41.2178 38.1153 41.2178 36.32V4.70555C41.2178 2.25021 39.2031 0.259766 36.7178 0.259766H4.71777C2.23249 0.259766 0.217773 2.25021 0.217773 4.70555V36.32C0.217773 38.1153 1.29493 39.6621 2.84559 40.3639ZM1.21777 4.70555C1.21777 2.79584 2.78478 1.24772 4.71777 1.24772H36.7178C38.6508 1.24772 40.2178 2.79584 40.2178 4.70555V23.9706H28.7178C28.4416 23.9706 28.2178 24.1918 28.2178 24.4646V28.8521C27.8846 29.329 27.4054 29.6987 26.8441 29.8983H14.0914C13.7691 29.7837 13.4738 29.613 13.2178 29.3981V24.4646C13.2178 24.1918 12.9939 23.9706 12.7178 23.9706H1.21777V4.70555ZM1.21777 24.9586H3.53571C2.52701 25.4427 1.7078 26.252 1.21777 27.2486V24.9586ZM40.2178 24.9586V27.2486C39.7277 26.252 38.9085 25.4427 37.8998 24.9586H40.2178ZM29.2178 24.9586H29.9434C29.6597 25.152 29.4136 25.3952 29.2178 25.6754V24.9586ZM12.2178 24.9586V27.2638C12.2178 26.3077 11.7326 25.4635 10.9922 24.9586H12.2178Z" fill="#030F0D"/>
</svg>
