<svg width="69" height="47" viewBox="0 0 69 47" fill="none" xmlns="http://www.w3.org/2000/svg">
<path fill-rule="evenodd" clip-rule="evenodd" d="M13.4279 10.7862C14.5114 10.5244 15.6189 10.3926 16.7298 10.3932C25.5273 10.3932 32.657 18.5412 32.657 28.5882C32.657 38.6382 25.5273 46.7862 16.7298 46.7862C7.9323 46.7862 0.799805 38.6412 0.799805 28.5882C0.799805 28.2942 0.80543 27.9972 0.819492 27.7032H0.799805C0.799805 12.5382 11.5998 0.199219 24.8748 0.199219V6.30722C20.5689 6.30722 16.5976 7.98122 13.4279 10.7862ZM49.0736 10.7862C50.1367 10.5282 51.2392 10.3932 52.3698 10.3932C61.1673 10.3932 68.2998 18.5412 68.2998 28.5882C68.2998 38.6382 61.1673 46.7862 52.3698 46.7862C43.5723 46.7862 36.4426 38.6412 36.4426 28.5882C36.4426 28.2942 36.4482 27.9972 36.4623 27.7032H36.4426C36.4426 12.5382 47.2426 0.199219 60.5176 0.199219V6.30722C56.2089 6.30722 52.2432 7.98122 49.0736 10.7862Z" fill="#FF7650"/>
</svg>
