<svg width="80" height="80" viewBox="0 0 80 80" fill="none" xmlns="http://www.w3.org/2000/svg">
<path d="M0.810547 69.6411V60.1816H19.7295V79.1005H0.810547V69.6411ZM17.0268 69.6411V62.8843H3.51325V76.3978H17.0268V69.6411ZM6.21595 69.6411V65.587H14.3241V73.6951H6.21595V69.6411ZM25.1349 77.7492V76.3978H22.4322V70.9924H25.1349V62.8843H27.8376V60.1816H22.4322V57.4789H11.6214V54.7762H14.3241V52.0735H8.91866V57.4789H6.21595V54.7762H0.810547V52.0735H6.21595V46.6681H3.51325V49.3708H0.810547V43.9654H6.21595V46.6681H8.91866V49.3708H11.6214V46.6681H14.3241V49.3708H19.7295V46.6681H17.0268V43.9654H8.91866V41.2627H17.0268V38.56H8.91866V35.8573H6.21595V38.56H0.810547V30.4519H3.51325V33.1546H19.7295V30.4519H17.0268V27.7492H11.6214V30.4519H8.91866V27.7492H3.51325V22.3438H8.91866V27.7492H11.6214V25.0465H17.0268V22.3438H19.7295V25.0465H17.0268V27.7492H19.7295V30.4519H22.4322V25.0465H25.1349V22.3438H22.4322V14.2357H27.8376V16.9384H30.5403V19.6411H27.8376V22.3438H30.5403V38.56H25.1349V35.8573H22.4322V38.56H19.7295V41.2627H17.0268V43.9654H19.7295V46.6681H22.4322V49.3708H27.8376V46.6681H25.1349V43.9654H22.4322V41.2627H27.8376V46.6681H30.5403V41.2627H33.243V46.6681H35.9457V38.56H38.6484V35.8573H41.3511V38.56H38.6484V41.2627H41.3511V43.9654H49.4592V41.2627H46.7565V38.56H44.0538V33.1546H41.3511V30.4519H44.0538V27.7492H46.7565V25.0465H44.0538V22.3438H41.3511V27.7492H38.6484V25.0465H35.9457V27.7492H33.243V25.0465H35.9457V22.3438H33.243V14.2357H30.5403V11.533H33.243V14.2357H35.9457V3.42487H38.6484V8.83028H44.0538V6.12757H41.3511V0.722168H46.7565V3.42487H44.0538V6.12757H49.4592V3.42487H52.1619V0.722168H57.5673V8.83028H52.1619V6.12757H49.4592V11.533H52.1619V19.6411H54.8646V16.9384H57.5673V30.4519H62.9727V27.7492H60.27V22.3438H65.6754V30.4519H71.0808V27.7492H68.3781V22.3438H71.0808V27.7492H73.7835V25.0465H79.1889V30.4519H76.4862V27.7492H73.7835V30.4519H71.0808V38.56H73.7835V41.2627H71.0808V43.9654H65.6754V46.6681H62.9727V49.3708H57.5673V46.6681H54.8646V43.9654H52.1619V49.3708H54.8646V52.0735H62.9727V54.7762H68.3781V52.0735H65.6754V49.3708H68.3781V46.6681H71.0808V49.3708H73.7835V52.0735H76.4862V46.6681H73.7835V43.9654H79.1889V52.0735H76.4862V57.4789H79.1889V62.8843H76.4862V70.9924H79.1889V73.6951H71.0808V79.1005H62.9727V76.3978H68.3781V73.6951H62.9727V68.2897H60.27V73.6951H57.5673V76.3978H60.27V79.1005H54.8646V70.9924H52.1619V76.3978H49.4592V73.6951H46.7565V62.8843H49.4592V70.9924H52.1619V62.8843H54.8646V57.4789H52.1619V54.7762H49.4592V52.0735H52.1619V49.3708H49.4592V46.6681H46.7565V57.4789H49.4592V60.1816H44.0538V65.587H41.3511V70.9924H44.0538V73.6951H41.3511V76.3978H46.7565V79.1005H41.3511V76.3978H38.6484V73.6951H35.9457V79.1005H25.1349V77.7492ZM33.243 73.6951V70.9924H35.9457V62.8843H30.5403V65.587H33.243V68.2897H27.8376V70.9924H25.1349V73.6951H27.8376V76.3978H33.243V73.6951ZM71.0808 70.9924V68.2897H73.7835V62.8843H76.4862V60.1816H73.7835V52.0735H71.0808V60.1816H73.7835V62.8843H71.0808V65.587H68.3781V73.6951H71.0808V70.9924ZM57.5673 69.6411V68.2897H54.8646V70.9924H57.5673V69.6411ZM41.3511 64.2357V62.8843H38.6484V65.587H41.3511V64.2357ZM65.6754 61.533V57.4789H57.5673V65.587H65.6754V61.533ZM60.27 61.533V60.1816H62.9727V62.8843H60.27V61.533ZM38.6484 58.8303V57.4789H44.0538V54.7762H38.6484V52.0735H35.9457V54.7762H38.6484V57.4789H33.243V54.7762H30.5403V57.4789H27.8376V54.7762H25.1349V52.0735H22.4322V49.3708H19.7295V52.0735H17.0268V54.7762H19.7295V52.0735H22.4322V54.7762H25.1349V57.4789H27.8376V60.1816H38.6484V58.8303ZM30.5403 50.7222V49.3708H27.8376V52.0735H30.5403V50.7222ZM44.0538 49.3708V46.6681H38.6484V49.3708H41.3511V52.0735H44.0538V49.3708ZM60.27 45.3168V43.9654H57.5673V46.6681H60.27V45.3168ZM65.6754 42.6141V41.2627H68.3781V33.1546H65.6754V35.8573H62.9727V38.56H60.27V35.8573H54.8646V33.1546H52.1619V30.4519H54.8646V22.3438H52.1619V19.6411H49.4592V16.9384H46.7565V19.6411H44.0538V11.533H46.7565V14.2357H49.4592V11.533H46.7565V8.83028H44.0538V11.533H41.3511V19.6411H44.0538V22.3438H46.7565V19.6411H49.4592V27.7492H46.7565V30.4519H44.0538V33.1546H46.7565V38.56H49.4592V35.8573H54.8646V38.56H57.5673V41.2627H62.9727V43.9654H65.6754V42.6141ZM62.9727 39.9114V38.56H65.6754V41.2627H62.9727V39.9114ZM19.7295 37.2087V35.8573H22.4322V33.1546H19.7295V35.8573H17.0268V38.56H19.7295V37.2087ZM27.8376 31.8032V30.4519H25.1349V33.1546H27.8376V31.8032ZM27.8376 18.2897V16.9384H25.1349V19.6411H27.8376V18.2897ZM38.6484 16.9384V14.2357H35.9457V19.6411H38.6484V16.9384ZM54.8646 4.77622V3.42487H52.1619V6.12757H54.8646V4.77622ZM76.4862 77.7492V76.3978H79.1889V79.1005H76.4862V77.7492ZM76.4862 38.56V35.8573H73.7835V33.1546H76.4862V35.8573H79.1889V41.2627H76.4862V38.56ZM0.810547 10.1816V0.722168H19.7295V19.6411H0.810547V10.1816ZM17.0268 10.1816V3.42487H3.51325V16.9384H17.0268V10.1816ZM6.21595 10.1816V6.12757H14.3241V14.2357H6.21595V10.1816ZM60.27 10.1816V0.722168H79.1889V19.6411H60.27V10.1816ZM76.4862 10.1816V3.42487H62.9727V16.9384H76.4862V10.1816ZM65.6754 10.1816V6.12757H73.7835V14.2357H65.6754V10.1816ZM22.4322 10.1816V8.83028H25.1349V11.533H22.4322V10.1816ZM27.8376 7.47892V6.12757H25.1349V0.722168H27.8376V3.42487H30.5403V0.722168H33.243V3.42487H30.5403V8.83028H27.8376V7.47892Z" fill="black"/>
</svg>
