<svg width="46" height="42" viewBox="0 0 46 42" fill="none" xmlns="http://www.w3.org/2000/svg">
<path d="M28.4601 17.0505C29.1467 17.299 29.7686 17.6989 30.2795 18.2207C31.2011 19.1635 31.7172 20.4294 31.7176 21.7478C31.7179 23.0661 31.2025 24.3323 30.2815 25.2757L22.7175 32.9597L15.1555 25.2747C14.2338 24.332 13.7178 23.066 13.7178 21.7477C13.7178 20.4293 14.2338 19.1633 15.1555 18.2207C15.6663 17.6987 16.2882 17.2986 16.9749 17.0501C17.6615 16.8015 18.3954 16.7108 19.1219 16.7848C19.8485 16.8588 20.549 17.0955 21.1715 17.4774C21.7939 17.8593 22.3224 18.3765 22.7175 18.9907C23.1128 18.3767 23.6413 17.8596 24.2637 17.4778C24.8862 17.096 25.5867 16.8593 26.3132 16.7854C27.0396 16.7114 27.7734 16.802 28.4601 17.0505Z" fill="#030F0D"/>
<path fill-rule="evenodd" clip-rule="evenodd" d="M0.717773 0.259766C0.441631 0.259766 0.217773 0.483623 0.217773 0.759766V36.7598C0.217773 37.9532 0.691879 39.0978 1.53579 39.9417C2.37971 40.7857 3.5243 41.2598 4.71777 41.2598H40.7178C41.9112 41.2598 43.0558 40.7857 43.8998 39.9417C44.7437 39.0978 45.2178 37.9532 45.2178 36.7598V8.75977C45.2178 8.48362 44.9939 8.25977 44.7178 8.25977H21.9949L17.1418 0.494766C17.0504 0.348575 16.8902 0.259766 16.7178 0.259766H0.717773ZM1.21777 36.7598V1.25977H16.4407L21.2938 9.02477C21.3851 9.17096 21.5454 9.25977 21.7178 9.25977H44.2178V36.7598C44.2178 37.688 43.849 38.5783 43.1926 39.2346C42.5363 39.891 41.646 40.2598 40.7178 40.2598H4.71777C3.78952 40.2598 2.89928 39.891 2.2429 39.2346C1.58652 38.5783 1.21777 37.688 1.21777 36.7598Z" fill="#030F0D"/>
</svg>
