<svg width="48" height="48" viewBox="0 0 48 48" fill="none" xmlns="http://www.w3.org/2000/svg">
<circle cx="24" cy="24" r="24" fill="url(#paint0_linear_2785_2800)"/>
<path d="M32.75 14.2817C32.75 14.27 32.75 14.2583 32.7267 14.2467C32.47 13.92 32.1317 13.745 31.735 13.745C31.1167 13.745 30.37 14.1533 29.565 15.0167C28.6083 16.0433 27.1383 15.9617 26.2983 14.8417L25.12 13.2783C24.6533 12.6483 24.035 12.3333 23.4167 12.3333C22.7983 12.3333 22.18 12.6483 21.7133 13.2783L20.5233 14.8533C19.695 15.9617 18.2367 16.0433 17.28 15.0283L17.2683 15.0167C15.95 13.605 14.7717 13.395 14.1067 14.2467C14.0833 14.2583 14.0833 14.27 14.0833 14.2817C13.6633 15.18 13.5 16.44 13.5 18.2133V29.7867C13.5 31.56 13.6633 32.82 14.0833 33.7183C14.0833 33.73 14.095 33.7533 14.1067 33.765C14.7833 34.605 15.95 34.395 17.2683 32.9833L17.28 32.9717C18.2367 31.9567 19.695 32.0383 20.5233 33.1467L21.7133 34.7217C22.18 35.3517 22.7983 35.6667 23.4167 35.6667C24.035 35.6667 24.6533 35.3517 25.12 34.7217L26.2983 33.1583C27.1383 32.0383 28.6083 31.9567 29.565 32.9833C30.37 33.8467 31.1167 34.255 31.735 34.255C32.1317 34.255 32.47 34.0917 32.7267 33.765C32.7383 33.7533 32.75 33.73 32.75 33.7183C33.17 32.82 33.3333 31.56 33.3333 29.7867V18.2133C33.3333 16.44 33.17 15.18 32.75 14.2817ZM26.3333 26.9167H19.3333C18.855 26.9167 18.4583 26.52 18.4583 26.0417C18.4583 25.5633 18.855 25.1667 19.3333 25.1667H26.3333C26.8117 25.1667 27.2083 25.5633 27.2083 26.0417C27.2083 26.52 26.8117 26.9167 26.3333 26.9167ZM28.6667 22.8333H19.3333C18.855 22.8333 18.4583 22.4367 18.4583 21.9583C18.4583 21.48 18.855 21.0833 19.3333 21.0833H28.6667C29.145 21.0833 29.5417 21.48 29.5417 21.9583C29.5417 22.4367 29.145 22.8333 28.6667 22.8333Z" fill="#082C25"/>
<defs>
<linearGradient id="paint0_linear_2785_2800" x1="26.0667" y1="-64.1928" x2="16.4007" y2="50.6859" gradientUnits="userSpaceOnUse">
<stop stop-color="#D1C2F9"/>
<stop offset="0.883614" stop-color="white"/>
<stop offset="1" stop-color="white" stop-opacity="0"/>
</linearGradient>
</defs>
</svg>
