<svg width="18" height="18" viewBox="0 0 18 18" fill="none" xmlns="http://www.w3.org/2000/svg">
<path d="M12.2225 2.3501H6.3349C3.77752 2.3501 2.25293 3.87469 2.25293 6.43206V12.3126C2.25293 14.877 3.77752 16.4016 6.3349 16.4016H12.2155C14.7728 16.4016 16.2974 14.877 16.2974 12.3197V6.43206C16.3045 3.87469 14.7799 2.3501 12.2225 2.3501ZM6.7986 8.65923C7.00234 8.45548 7.33958 8.45548 7.54333 8.65923L8.75176 9.86766V5.51872C8.75176 5.23066 8.99063 4.99178 9.27869 4.99178C9.56675 4.99178 9.80562 5.23066 9.80562 5.51872V9.86766L11.0141 8.65923C11.2178 8.45548 11.555 8.45548 11.7588 8.65923C11.9625 8.86298 11.9625 9.20021 11.7588 9.40396L9.65106 11.5117C9.60188 11.5609 9.54567 11.596 9.48244 11.6241C9.41921 11.6522 9.34895 11.6663 9.27869 11.6663C9.20843 11.6663 9.1452 11.6522 9.07494 11.6241C9.01171 11.596 8.95551 11.5609 8.90633 11.5117L6.7986 9.40396C6.59485 9.20021 6.59485 8.87 6.7986 8.65923ZM13.6628 13.0433C12.2506 13.514 10.7682 13.7529 9.27869 13.7529C7.78923 13.7529 6.30679 13.514 4.89462 13.0433C4.62061 12.952 4.47307 12.6499 4.56441 12.3759C4.65574 12.1019 4.95082 11.9473 5.23185 12.0456C7.84544 12.9168 10.719 12.9168 13.3326 12.0456C13.6066 11.9543 13.9087 12.1019 14 12.3759C14.0843 12.6569 13.9368 12.952 13.6628 13.0433Z" fill="#082C25"/>
</svg>
