<svg width="46" height="46" viewBox="0 0 46 46" fill="none" xmlns="http://www.w3.org/2000/svg">
<path d="M0.717773 19.8951C0.717773 9.6032 9.06121 1.25977 19.3531 1.25977V19.8951H0.717773Z" fill="#082C25" fill-opacity="0.2"/>
<path d="M25.5648 6.95388C25.2789 6.95388 25.0472 7.18564 25.0472 7.47153C25.0472 7.75742 25.2789 7.98918 25.5648 7.98918C35.5708 7.98918 43.6825 16.1009 43.6825 26.1068C43.6825 36.1128 35.5708 44.2245 25.5648 44.2245C15.5589 44.2245 7.44719 36.1128 7.44719 26.1068C7.44719 25.8209 7.21543 25.5892 6.92954 25.5892C6.64365 25.5892 6.41189 25.8209 6.41189 26.1068C6.41189 36.6846 14.9871 45.2598 25.5648 45.2598C36.1426 45.2598 44.7178 36.6846 44.7178 26.1068C44.7178 15.5291 36.1426 6.95388 25.5648 6.95388Z" fill="#082C25" fill-opacity="0.2"/>
<path d="M0.717773 19.8951C0.717773 9.6032 9.06121 1.25977 19.3531 1.25977V19.8951H0.717773Z" stroke="#030F0D" stroke-miterlimit="10" stroke-linecap="round" stroke-linejoin="round"/>
<path d="M25.5648 6.95388C25.2789 6.95388 25.0472 7.18564 25.0472 7.47153C25.0472 7.75742 25.2789 7.98918 25.5648 7.98918C35.5708 7.98918 43.6825 16.1009 43.6825 26.1068C43.6825 36.1128 35.5708 44.2245 25.5648 44.2245C15.5589 44.2245 7.44719 36.1128 7.44719 26.1068C7.44719 25.8209 7.21543 25.5892 6.92954 25.5892C6.64365 25.5892 6.41189 25.8209 6.41189 26.1068C6.41189 36.6846 14.9871 45.2598 25.5648 45.2598C36.1426 45.2598 44.7178 36.6846 44.7178 26.1068C44.7178 15.5291 36.1426 6.95388 25.5648 6.95388Z" stroke="#030F0D" stroke-miterlimit="10" stroke-linecap="round" stroke-linejoin="round"/>
</svg>
