<svg width="45" height="45" viewBox="0 0 45 45" fill="none" xmlns="http://www.w3.org/2000/svg">
<path d="M34.3036 2.17281L22.7178 13.2549L15.4249 6.27906C15.0344 5.90551 14.4012 5.90551 14.0107 6.27906L4.01067 15.8443C3.62014 16.2178 3.62014 16.8235 4.01067 17.197C4.40119 17.5705 5.03436 17.5705 5.42488 17.197L14.7178 8.30814L22.0107 15.284C22.4012 15.6575 23.0344 15.6575 23.4249 15.284L35.7178 3.52554V9.82498C35.7178 10.3533 36.1655 10.7815 36.7178 10.7815C37.2701 10.7815 37.7178 10.3533 37.7178 9.82498V1.21629C37.7178 1.20099 37.7174 1.18569 37.7166 1.1704C37.7052 0.941119 37.6079 0.715024 37.4249 0.539924C37.329 0.448216 37.2185 0.379023 37.1006 0.332345C36.9827 0.285578 36.8534 0.259766 36.7178 0.259766H27.7178C27.1655 0.259766 26.7178 0.688015 26.7178 1.21629C26.7178 1.74456 27.1655 2.17281 27.7178 2.17281H34.3036Z" fill="#030F0D"/>
<path d="M36.7178 16.5206H44.7178V43.3032H36.7178V16.5206Z" fill="#030F0D"/>
<path fill-rule="evenodd" clip-rule="evenodd" d="M17.7178 26.0859C17.7178 25.5576 18.1655 25.1293 18.7178 25.1293H26.7178C27.2701 25.1293 27.7178 25.5576 27.7178 26.0859V43.3032C27.7178 43.8315 27.2701 44.2598 26.7178 44.2598H18.7178C18.1655 44.2598 17.7178 43.8315 17.7178 43.3032V26.0859ZM19.7178 27.0424V42.3467H25.7178V27.0424H19.7178Z" fill="#030F0D"/>
<path d="M8.71777 35.6511H0.717773V43.3032H8.71777V35.6511Z" fill="#030F0D"/>
</svg>
