<svg width="48" height="48" viewBox="0 0 48 48" fill="none" xmlns="http://www.w3.org/2000/svg">
<rect width="48" height="48" rx="24" fill="#B6F485" fill-opacity="0.8"/>
<path d="M32.75 14.0833L31 12.3333L29.25 14.0833L27.5 12.3333L25.75 14.0833L24 12.3333L22.25 14.0833L20.5 12.3333L18.75 14.0833L17 12.3333L15.25 14.0833L13.5 12.3333V35.6666L15.25 33.9166L17 35.6666L18.75 33.9166L20.5 35.6666L22.25 33.9166L24 35.6666L25.75 33.9166L27.5 35.6666L29.25 33.9166L31 35.6666L32.75 33.9166L34.5 35.6666V12.3333L32.75 14.0833ZM32.1667 32.2716H15.8333V15.7283H32.1667V32.2716ZM17 27.5H31V29.8333H17V27.5ZM17 22.8333H31V25.1666H17V22.8333ZM17 18.1666H31V20.5H17V18.1666Z" fill="url(#paint0_linear_2785_2568)"/>
<defs>
<linearGradient id="paint0_linear_2785_2568" x1="24.1679" y1="12.4391" x2="43.5105" y2="67.4621" gradientUnits="userSpaceOnUse">
<stop stop-color="#082C25"/>
<stop offset="1" stop-color="#082C25" stop-opacity="0"/>
</linearGradient>
</defs>
</svg>
