<svg width="40" height="40" viewBox="0 0 40 40" fill="none" xmlns="http://www.w3.org/2000/svg">
<g clip-path="url(#clip0_3979_38368)">
<path d="M9.23122 0C8.00714 0 6.8332 0.486262 5.96765 1.35181C5.1021 2.21737 4.61584 3.39131 4.61584 4.61538V27.6923C4.61584 28.9164 5.1021 30.0903 5.96765 30.9559C6.8332 31.8214 8.00714 32.3077 9.23122 32.3077V32.9323C9.23122 34.2015 8.91891 35.2554 8.4143 35.9138C7.90814 36.5692 7.26968 36.9231 6.1543 36.9231C5.03891 36.9231 4.40045 36.5692 3.8943 35.9138C3.38968 35.2569 3.07737 34.2 3.07737 32.9323V25.5292C3.08307 25.2954 3.03539 25.0634 2.93796 24.8508C2.84053 24.6382 2.69592 24.4507 2.51512 24.3023C2.33432 24.154 2.12208 24.0489 1.89454 23.9949C1.667 23.9409 1.43015 23.9395 1.20199 23.9908C0.854657 24.0686 0.545065 24.2645 0.32597 24.545C0.106874 24.8256 -0.00816612 25.1734 0.00045122 25.5292V32.9323C0.00045122 34.7231 0.454297 36.44 1.49122 37.7892C2.52814 39.1354 4.20814 40 6.1543 40C8.10045 40 9.78045 39.1354 10.8174 37.7877C11.8543 36.4415 12.3081 34.7231 12.3081 32.9323V32.3077C13.5322 32.3077 14.7062 31.8214 15.5717 30.9559C16.4373 30.0903 16.9235 28.9164 16.9235 27.6923V4.61538C16.9235 3.39131 16.4373 2.21737 15.5717 1.35181C14.7062 0.486262 13.5322 0 12.3081 0L9.23122 0ZM23.0774 0C21.8533 0 20.6794 0.486262 19.8138 1.35181C18.9483 2.21737 18.462 3.39131 18.462 4.61538V27.6923C18.462 28.9164 18.9483 30.0903 19.8138 30.9559C20.6794 31.8214 21.8533 32.3077 23.0774 32.3077H33.8466C36.3958 32.3077 39.8558 30.2877 39.8558 16.1538C39.8558 2.02 36.3958 0 33.8466 0H23.0774ZM23.8466 4.61538H34.6158C34.8198 4.61538 35.0155 4.69643 35.1598 4.84069C35.304 4.98495 35.3851 5.1806 35.3851 5.38462V10C35.3851 10.204 35.304 10.3997 35.1598 10.5439C35.0155 10.6882 34.8198 10.7692 34.6158 10.7692H23.8466C23.6426 10.7692 23.4469 10.6882 23.3027 10.5439C23.1584 10.3997 23.0774 10.204 23.0774 10V5.38462C23.0774 5.1806 23.1584 4.98495 23.3027 4.84069C23.4469 4.69643 23.6426 4.61538 23.8466 4.61538ZM23.8466 13.8462H25.3851C25.5891 13.8462 25.7847 13.9272 25.929 14.0715C26.0733 14.2157 26.1543 14.4114 26.1543 14.6154V16.1538C26.1543 16.3579 26.0733 16.5535 25.929 16.6978C25.7847 16.842 25.5891 16.9231 25.3851 16.9231H23.8466C23.6426 16.9231 23.4469 16.842 23.3027 16.6978C23.1584 16.5535 23.0774 16.3579 23.0774 16.1538V14.6154C23.0774 14.4114 23.1584 14.2157 23.3027 14.0715C23.4469 13.9272 23.6426 13.8462 23.8466 13.8462ZM28.462 13.8462H30.0005C30.2045 13.8462 30.4001 13.9272 30.5444 14.0715C30.6886 14.2157 30.7697 14.4114 30.7697 14.6154V16.1538C30.7697 16.3579 30.6886 16.5535 30.5444 16.6978C30.4001 16.842 30.2045 16.9231 30.0005 16.9231H28.462C28.258 16.9231 28.0623 16.842 27.9181 16.6978C27.7738 16.5535 27.6928 16.3579 27.6928 16.1538V14.6154C27.6928 14.4114 27.7738 14.2157 27.9181 14.0715C28.0623 13.9272 28.258 13.8462 28.462 13.8462ZM33.0774 13.8462H34.6158C34.8198 13.8462 35.0155 13.9272 35.1598 14.0715C35.304 14.2157 35.3851 14.4114 35.3851 14.6154V16.1538C35.3851 16.3579 35.304 16.5535 35.1598 16.6978C35.0155 16.842 34.8198 16.9231 34.6158 16.9231H33.0774C32.8734 16.9231 32.6777 16.842 32.5334 16.6978C32.3892 16.5535 32.3081 16.3579 32.3081 16.1538V14.6154C32.3081 14.4114 32.3892 14.2157 32.5334 14.0715C32.6777 13.9272 32.8734 13.8462 33.0774 13.8462ZM23.8466 18.4615H25.3851C25.5891 18.4615 25.7847 18.5426 25.929 18.6868C26.0733 18.8311 26.1543 19.0268 26.1543 19.2308V20.7692C26.1543 20.9732 26.0733 21.1689 25.929 21.3132C25.7847 21.4574 25.5891 21.5385 25.3851 21.5385H23.8466C23.6426 21.5385 23.4469 21.4574 23.3027 21.3132C23.1584 21.1689 23.0774 20.9732 23.0774 20.7692V19.2308C23.0774 19.0268 23.1584 18.8311 23.3027 18.6868C23.4469 18.5426 23.6426 18.4615 23.8466 18.4615ZM28.462 18.4615H30.0005C30.2045 18.4615 30.4001 18.5426 30.5444 18.6868C30.6886 18.8311 30.7697 19.0268 30.7697 19.2308V20.7692C30.7697 20.9732 30.6886 21.1689 30.5444 21.3132C30.4001 21.4574 30.2045 21.5385 30.0005 21.5385H28.462C28.258 21.5385 28.0623 21.4574 27.9181 21.3132C27.7738 21.1689 27.6928 20.9732 27.6928 20.7692V19.2308C27.6928 19.0268 27.7738 18.8311 27.9181 18.6868C28.0623 18.5426 28.258 18.4615 28.462 18.4615ZM33.0774 18.4615H34.6158C34.8198 18.4615 35.0155 18.5426 35.1598 18.6868C35.304 18.8311 35.3851 19.0268 35.3851 19.2308V20.7692C35.3851 20.9732 35.304 21.1689 35.1598 21.3132C35.0155 21.4574 34.8198 21.5385 34.6158 21.5385H33.0774C32.8734 21.5385 32.6777 21.4574 32.5334 21.3132C32.3892 21.1689 32.3081 20.9732 32.3081 20.7692V19.2308C32.3081 19.0268 32.3892 18.8311 32.5334 18.6868C32.6777 18.5426 32.8734 18.4615 33.0774 18.4615ZM23.8466 23.0769H25.3851C25.5891 23.0769 25.7847 23.158 25.929 23.3022C26.0733 23.4465 26.1543 23.6421 26.1543 23.8462V25.3846C26.1543 25.5886 26.0733 25.7843 25.929 25.9285C25.7847 26.0728 25.5891 26.1538 25.3851 26.1538H23.8466C23.6426 26.1538 23.4469 26.0728 23.3027 25.9285C23.1584 25.7843 23.0774 25.5886 23.0774 25.3846V23.8462C23.0774 23.6421 23.1584 23.4465 23.3027 23.3022C23.4469 23.158 23.6426 23.0769 23.8466 23.0769ZM28.462 23.0769H30.0005C30.2045 23.0769 30.4001 23.158 30.5444 23.3022C30.6886 23.4465 30.7697 23.6421 30.7697 23.8462V25.3846C30.7697 25.5886 30.6886 25.7843 30.5444 25.9285C30.4001 26.0728 30.2045 26.1538 30.0005 26.1538H28.462C28.258 26.1538 28.0623 26.0728 27.9181 25.9285C27.7738 25.7843 27.6928 25.5886 27.6928 25.3846V23.8462C27.6928 23.6421 27.7738 23.4465 27.9181 23.3022C28.0623 23.158 28.258 23.0769 28.462 23.0769ZM33.0774 23.0769H34.6158C34.8198 23.0769 35.0155 23.158 35.1598 23.3022C35.304 23.4465 35.3851 23.6421 35.3851 23.8462V25.3846C35.3851 25.5886 35.304 25.7843 35.1598 25.9285C35.0155 26.0728 34.8198 26.1538 34.6158 26.1538H33.0774C32.8734 26.1538 32.6777 26.0728 32.5334 25.9285C32.3892 25.7843 32.3081 25.5886 32.3081 25.3846V23.8462C32.3081 23.6421 32.3892 23.4465 32.5334 23.3022C32.6777 23.158 32.8734 23.0769 33.0774 23.0769Z" fill="#030F0D"/>
</g>
<defs>
<clipPath id="clip0_3979_38368">
<rect width="40" height="40" fill="white"/>
</clipPath>
</defs>
</svg>
