<svg width="18" height="18" viewBox="0 0 18 18" fill="none" xmlns="http://www.w3.org/2000/svg">
<path d="M11.9813 2.52576H6.09369C3.53631 2.52576 2.01172 4.05035 2.01172 6.60772V12.4883C2.01172 15.0527 3.53631 16.5773 6.09369 16.5773H11.9742C14.5316 16.5773 16.0562 15.0527 16.0562 12.4953V6.60772C16.0632 4.05035 14.5387 2.52576 11.9813 2.52576ZM6.67682 10.1206L9.75411 7.04332H8.04685C7.75879 7.04332 7.51992 6.80445 7.51992 6.51639C7.51992 6.22833 7.75879 5.98946 8.04685 5.98946H11.0258C11.096 5.98946 11.1593 6.00351 11.2295 6.03161C11.356 6.08782 11.4614 6.18618 11.5176 6.31967C11.5457 6.3829 11.5597 6.45316 11.5597 6.52341V9.50234C11.5597 9.79039 11.3209 10.0293 11.0328 10.0293C10.7447 10.0293 10.5059 9.79039 10.5059 9.50234V7.79508L7.42155 10.8653C7.31617 10.9707 7.18268 11.0199 7.04919 11.0199C6.9157 11.0199 6.78221 10.9707 6.67682 10.8653C6.47308 10.6616 6.47308 10.3244 6.67682 10.1206ZM13.4216 13.219C12.0094 13.6897 10.5269 13.9286 9.03748 13.9286C7.54802 13.9286 6.06558 13.6897 4.6534 13.219C4.3794 13.1276 4.23186 12.8255 4.32319 12.5515C4.41453 12.2775 4.70961 12.1229 4.99064 12.2213C7.60422 13.0925 10.4778 13.0925 13.0913 12.2213C13.3653 12.13 13.6675 12.2775 13.7588 12.5515C13.8431 12.8325 13.6956 13.1276 13.4216 13.219Z" fill="#082C25"/>
</svg>
