<svg width="48" height="48" viewBox="0 0 48 48" fill="none" xmlns="http://www.w3.org/2000/svg">
<circle cx="24" cy="24" r="24" fill="#F9FEC9"/>
<path d="M13.5 29.625C13.5 30.3212 13.7766 30.9889 14.2688 31.4812C14.7611 31.9734 15.4288 32.25 16.125 32.25H31.875C32.5712 32.25 33.2389 31.9734 33.7312 31.4812C34.2234 30.9889 34.5 30.3212 34.5 29.625V22.4062H13.5V29.625ZM16.5938 26.0625C16.5938 25.6895 16.7419 25.3319 17.0056 25.0681C17.2694 24.8044 17.627 24.6562 18 24.6562H20.25C20.623 24.6562 20.9806 24.8044 21.2444 25.0681C21.5081 25.3319 21.6562 25.6895 21.6562 26.0625V27C21.6562 27.373 21.5081 27.7306 21.2444 27.9944C20.9806 28.2581 20.623 28.4062 20.25 28.4062H18C17.627 28.4062 17.2694 28.2581 17.0056 27.9944C16.7419 27.7306 16.5938 27.373 16.5938 27V26.0625ZM31.875 15.75H16.125C15.4288 15.75 14.7611 16.0266 14.2688 16.5188C13.7766 17.0111 13.5 17.6788 13.5 18.375V19.5938H34.5V18.375C34.5 17.6788 34.2234 17.0111 33.7312 16.5188C33.2389 16.0266 32.5712 15.75 31.875 15.75Z" fill="#082C25"/>
</svg>
