<svg width="23" height="27" viewBox="0 0 23 27" fill="none" xmlns="http://www.w3.org/2000/svg">
<path fill-rule="evenodd" clip-rule="evenodd" d="M1.41999 14.947C0.0320991 18.9945 3.5006 23.8508 9.1671 25.7939C14.8336 27.7369 20.5523 26.0309 21.9402 21.9834C23.3281 17.9359 19.8596 13.0796 14.1931 11.1366C8.52659 9.19352 2.80788 10.8995 1.41999 14.947ZM3.02514 15.6787C2.02133 18.6061 4.26773 22.0285 8.04261 23.3229C11.8175 24.6173 15.6914 23.2935 16.6952 20.3661C17.699 17.4387 15.4526 14.0162 11.6777 12.7218C7.90285 11.4274 4.02895 12.7512 3.02514 15.6787Z" fill="#082C25"/>
<path d="M13.1289 14.4239C8.96616 17.9903 3.65718 18.3979 1.21716 15.3159C-1.24522 12.2057 0.146667 6.71933 4.32602 3.0618C8.50538 -0.595719 13.8896 -1.03937 16.3519 2.07088C18.1701 4.36739 17.8869 7.95934 15.9319 11.154C15.5391 10.9837 15.1343 10.8266 14.7187 10.6841C14.1964 10.505 13.6738 10.3547 13.1537 10.2321C13.8682 8.36392 13.7719 6.44395 12.7146 5.10846C10.9506 2.88038 7.17965 3.12289 4.29185 5.65012C1.40406 8.17734 0.493012 12.0323 2.25698 14.2604C4.02094 16.4884 7.79194 16.2459 10.6797 13.7187C10.8276 13.5893 10.9702 13.4565 11.1076 13.3206C11.8627 13.5983 12.543 13.976 13.1289 14.4239Z" fill="#082C25"/>
</svg>
